<?xml version="1.0" encoding="utf-8"?>
<!-- Generator: Adobe Illustrator 19.2.0, SVG Export Plug-In . SVG Version: 6.00 Build 0)  -->
<svg version="1.1" id="Lager_1" xmlns="http://www.w3.org/2000/svg" xmlns:xlink="http://www.w3.org/1999/xlink" x="0px" y="0px"
	 width="1123.6px" height="431.8px" viewBox="0 0 1123.6 431.8" style="enable-background:new 0 0 1123.6 431.8;"
	 xml:space="preserve">
<style type="text/css">
	.st0{fill:#6393A1;}
	.st1{fill:#22C455;}
	.st2{fill:#FFFFFF;}
	.st3{font-family:'ProximaNovaCond-Semibold';}
	.st4{font-size:29.5837px;}
	.st5{fill:none;stroke:#A2A2A2;stroke-width:13.988;stroke-linecap:round;stroke-linejoin:round;stroke-miterlimit:10;}
	.st6{fill:none;stroke:#C2C2C2;stroke-width:13.988;stroke-linecap:round;stroke-linejoin:round;stroke-miterlimit:10;}
	.st7{fill:none;stroke:#B6B6B6;stroke-width:13.988;stroke-linecap:round;stroke-linejoin:round;stroke-miterlimit:10;}
	.st8{fill:#969696;}
	.st9{fill:#979797;}
	.st10{fill:#A7A7A7;}
	.st11{fill:#AFAFAF;}
	.st12{fill:#9A9A9A;}
	.st13{clip-path:url(#SVGID_4_);}
	.st14{font-family:'Avenir-Book';}
	.st15{font-size:20.5647px;}
</style>
<path class="st0" d="M535.9,431.8H300c-6.9,0-12.5-5.6-12.5-12.5V302.4c0-6.9,5.6-12.5,12.5-12.5h235.9c6.9,0,12.5,5.6,12.5,12.5
	v116.9C548.4,426.2,542.8,431.8,535.9,431.8"/>
<path class="st0" d="M823.5,431.8H587.6c-6.9,0-12.5-5.6-12.5-12.5V302.4c0-6.9,5.6-12.5,12.5-12.5h235.9c6.9,0,12.5,5.6,12.5,12.5
	v116.9C836,426.2,830.4,431.8,823.5,431.8"/>
<path class="st0" d="M1111.1,431.8H875.1c-6.9,0-12.5-5.6-12.5-12.5V302.4c0-6.9,5.6-12.5,12.5-12.5h235.9c6.9,0,12.5,5.6,12.5,12.5
	v116.9C1123.6,426.2,1117.9,431.8,1111.1,431.8"/>
<path class="st1" d="M1044,248H73.8c-6.9,0-12.5-5.6-12.5-12.5V155c0-6.9,5.6-12.5,12.5-12.5H1044c6.9,0,12.5,5.6,12.5,12.5v80.6
	C1056.5,242.4,1050.9,248,1044,248"/>
<path class="st0" d="M248.4,431.8H12.5c-6.9,0-12.5-5.6-12.5-12.5V302.4c0-6.9,5.6-12.5,12.5-12.5h235.9c6.9,0,12.5,5.6,12.5,12.5
	v116.9C260.9,426.2,255.3,431.8,248.4,431.8"/>
<path class="st2" d="M139.6,202.8v-19.7h3.3V200h6.9v2.9H139.6z M151.6,195.7c0-4.1,2.3-7.5,6.2-7.5c3.9,0,5.9,3.3,5.9,7.6v0.9h-9.1
	c0.1,2.3,1.4,4.1,3.8,4.1c1.2,0,2.4-0.5,3.3-1.5l1.4,1.8c-1.2,1.4-3,2.2-5,2.2C154.1,203.2,151.6,200.1,151.6,195.7z M157.7,190.6
	c-2.2,0-3.1,2.2-3.2,3.9h6.3C160.8,192.8,160,190.6,157.7,190.6z M174.6,202.8v-1.9c-0.9,1.4-2.2,2.2-3.7,2.2
	c-3.2,0-5.2-2.9-5.2-7.5c0-4.5,2-7.5,5.2-7.5c1.4,0,2.8,0.7,3.7,2.3v-7.4h2.9v19.7H174.6z M174.6,198.6v-5.9c-0.5-1.1-1.7-2-2.8-2
	c-2.1,0-3.1,2.1-3.1,4.9c0,2.8,1,4.9,3.1,4.9C172.9,200.6,174.1,199.7,174.6,198.6z M188.9,202.8v-9.7c0-1.7-0.8-2.3-2-2.3
	c-1.3,0-2.4,1-3,2v10.1H181v-14.3h2.9v1.9c0.8-1.2,2.4-2.3,4.2-2.3c2.6,0,3.8,1.4,3.8,3.9v10.7H188.9z M195,184.9
	c0-1,0.9-1.8,1.9-1.8c1,0,1.8,0.8,1.8,1.8c0,1-0.8,1.8-1.8,1.8C195.8,186.7,195,185.9,195,184.9z M195.4,202.8v-14.3h2.9v14.3H195.4
	z M209.7,202.8v-9.7c0-1.7-0.8-2.3-2-2.3c-1.3,0-2.4,1-3,2v10.1h-2.9v-14.3h2.9v1.9c0.8-1.2,2.4-2.3,4.2-2.3c2.6,0,3.8,1.4,3.8,3.9
	v10.7H209.7z M216,206.8l1.2-2.3c0.9,1.1,2.2,1.6,3.7,1.6c1.8,0,3.4-1,3.4-3.5v-2.1c-0.9,1.4-2.2,2.3-3.7,2.3
	c-3.2,0-5.2-2.7-5.2-7.3c0-4.5,2-7.3,5.2-7.3c1.4,0,2.8,0.7,3.7,2.3v-1.9h2.9v14.1c0,4.6-3.1,6-6.2,6
	C219.1,208.6,217.5,208.2,216,206.8z M224.4,198.3v-5.5c-0.5-1.1-1.7-2-2.8-2c-2.1,0-3.1,2-3.1,4.7c0,2.8,1,4.7,3.1,4.7
	C222.7,200.2,223.9,199.3,224.4,198.3z M236.3,195.7c0-4,2.2-7.5,6.2-7.5c4.1,0,6.2,3.5,6.2,7.5c0,4-2.2,7.5-6.2,7.5
	C238.5,203.2,236.3,199.7,236.3,195.7z M245.7,195.7c0-2.6-0.9-4.9-3.1-4.9c-2.2,0-3.2,2.3-3.2,4.9c0,2.6,1,4.9,3.2,4.9
	C244.7,200.6,245.7,198.3,245.7,195.7z M250.8,195.7c0-4.3,2.5-7.5,6.3-7.5c2.1,0,3.5,0.9,4.4,1.9l-1.5,2c-0.7-0.9-1.5-1.3-2.6-1.3
	c-2.2,0-3.6,2.2-3.6,4.9c0,2.7,1.3,4.9,3.6,4.9c1,0,1.9-0.4,2.6-1.3l1.5,2c-0.9,1.1-2.2,1.9-4.4,1.9
	C253.3,203.2,250.8,200,250.8,195.7z M271.8,202.8v-9.8c0-1.7-0.8-2.3-2.1-2.3c-1.3,0-2.4,1-2.9,2v10.1h-3v-19.7h3v7.4
	c0.8-1.2,2.4-2.3,4.2-2.3c2.6,0,3.8,1.4,3.8,3.8v10.8H271.8z M283.4,201.1l1.3-2.1c0.9,1,2.3,1.8,3.8,1.8c1.5,0,2.4-0.7,2.4-1.9
	c0-2.8-7.1-1.5-7.1-6.7c0-2.2,1.8-4.1,4.9-4.1c2,0,3.6,0.7,4.7,1.8l-1.3,2c-0.7-0.8-2-1.5-3.4-1.5c-1.3,0-2.2,0.7-2.2,1.7
	c0,2.5,7.2,1.5,7.2,6.7c0,2.5-2,4.3-5.2,4.3C286.4,203.2,284.6,202.4,283.4,201.1z M296.9,199.6v-8.5h-1.9v-2.6h1.9v-3.9h2.9v3.9
	h2.4v2.6h-2.4v7.9c0,1,0.4,1.6,1.1,1.6c0.5,0,0.9-0.2,1.1-0.5l0.7,2.2c-0.5,0.5-1.4,0.8-2.6,0.8C298,203.2,296.9,202,296.9,199.6z
	 M304.7,205.8c0.2,0.1,0.7,0.2,0.9,0.2c0.8,0,1.3-0.3,1.6-1.2l0.6-1.7l-4.9-14.6h3.2l3.2,10.7l3.2-10.7h3.1l-5.7,17
	c-0.8,2.4-2.2,3.1-4.2,3.1c-0.4,0-1.2-0.1-1.6-0.2L304.7,205.8z M317.5,202.8v-14.3h2.9v2.1c0.9-1.4,2.4-2.4,4-2.4v2.9
	c-0.2-0.1-0.5-0.1-0.8-0.1c-1.2,0-2.6,0.9-3.2,2v9.8H317.5z M334.6,202.8v-9.7c0-1.7-0.8-2.3-2-2.3c-1.3,0-2.4,1-3,2v10.1h-2.9
	v-14.3h2.9v1.9c0.8-1.2,2.4-2.3,4.2-2.3c2.6,0,3.8,1.4,3.8,3.9v10.7H334.6z M340.6,184.9c0-1,0.9-1.8,1.9-1.8c1,0,1.8,0.8,1.8,1.8
	c0,1-0.8,1.8-1.8,1.8C341.5,186.7,340.6,185.9,340.6,184.9z M341,202.8v-14.3h2.9v14.3H341z M355.4,202.8v-9.7c0-1.7-0.8-2.3-2-2.3
	c-1.3,0-2.4,1-3,2v10.1h-2.9v-14.3h2.9v1.9c0.8-1.2,2.4-2.3,4.2-2.3c2.6,0,3.8,1.4,3.8,3.9v10.7H355.4z M361.7,206.8l1.2-2.3
	c0.9,1.1,2.2,1.6,3.7,1.6c1.8,0,3.4-1,3.4-3.5v-2.1c-0.9,1.4-2.2,2.3-3.7,2.3c-3.2,0-5.2-2.7-5.2-7.3c0-4.5,2-7.3,5.2-7.3
	c1.4,0,2.8,0.7,3.7,2.3v-1.9h2.9v14.1c0,4.6-3.1,6-6.2,6C364.7,208.6,363.1,208.2,361.7,206.8z M370,198.3v-5.5
	c-0.5-1.1-1.7-2-2.8-2c-2.1,0-3.1,2-3.1,4.7c0,2.8,1,4.7,3.1,4.7C368.3,200.2,369.5,199.3,370,198.3z M390.1,202.8v-1.5
	c-0.9,1.2-2.3,1.9-3.8,1.9c-2.3,0-4.4-1.7-4.4-4.7c0-3.1,2.1-4.7,4.4-4.7c1.5,0,3,0.6,3.8,1.8v-2.1c0-1.7-1-2.7-2.8-2.7
	c-1.3,0-2.5,0.5-3.6,1.7l-1.2-2.1c1.4-1.5,3.4-2.1,5.3-2.1c3,0,5.2,1.4,5.2,4.9v9.8H390.1z M390.1,199.7v-2.3
	c-0.6-1.1-1.6-1.5-2.7-1.5c-1.5,0-2.5,1.1-2.5,2.7c0,1.5,1,2.7,2.5,2.7C388.5,201.1,389.6,200.7,390.1,199.7z M399.6,202.8
	l-4.8-14.3h3.2l3.2,10.8l3.2-10.8h3.1l-4.8,14.3H399.6z M414.9,195.7c0-4,2.2-7.5,6.2-7.5c4.1,0,6.2,3.5,6.2,7.5
	c0,4-2.2,7.5-6.2,7.5C417,203.2,414.9,199.7,414.9,195.7z M424.2,195.7c0-2.6-0.9-4.9-3.1-4.9c-2.2,0-3.2,2.3-3.2,4.9
	c0,2.6,1,4.9,3.2,4.9C423.3,200.6,424.2,198.3,424.2,195.7z M430.1,202.8v-14.3h2.9v2.1c0.9-1.4,2.4-2.4,4-2.4v2.9
	c-0.2-0.1-0.5-0.1-0.8-0.1c-1.2,0-2.6,0.9-3.2,2v9.8H430.1z M439.1,206.8l1.2-2.3c0.9,1.1,2.2,1.6,3.7,1.6c1.8,0,3.4-1,3.4-3.5v-2.1
	c-0.9,1.4-2.2,2.3-3.7,2.3c-3.2,0-5.2-2.7-5.2-7.3c0-4.5,2-7.3,5.2-7.3c1.4,0,2.8,0.7,3.7,2.3v-1.9h2.9v14.1c0,4.6-3.1,6-6.2,6
	C442.1,208.6,440.5,208.2,439.1,206.8z M447.4,198.3v-5.5c-0.5-1.1-1.7-2-2.8-2c-2.1,0-3.1,2-3.1,4.7c0,2.8,1,4.7,3.1,4.7
	C445.7,200.2,446.9,199.3,447.4,198.3z M461.3,202.8v-1.5c-0.9,1.2-2.3,1.9-3.8,1.9c-2.3,0-4.4-1.7-4.4-4.7c0-3.1,2.1-4.7,4.4-4.7
	c1.5,0,3,0.6,3.8,1.8v-2.1c0-1.7-1-2.7-2.8-2.7c-1.3,0-2.5,0.5-3.6,1.7l-1.2-2.1c1.4-1.5,3.4-2.1,5.3-2.1c3,0,5.2,1.4,5.2,4.9v9.8
	H461.3z M461.3,199.7v-2.3c-0.6-1.1-1.6-1.5-2.7-1.5c-1.5,0-2.5,1.1-2.5,2.7c0,1.5,1,2.7,2.5,2.7
	C459.6,201.1,460.7,200.7,461.3,199.7z M475.6,202.8v-9.7c0-1.7-0.8-2.3-2-2.3c-1.3,0-2.4,1-3,2v10.1h-2.9v-14.3h2.9v1.9
	c0.8-1.2,2.4-2.3,4.2-2.3c2.6,0,3.8,1.4,3.8,3.9v10.7H475.6z M481.7,184.9c0-1,0.9-1.8,1.9-1.8c1,0,1.8,0.8,1.8,1.8
	c0,1-0.8,1.8-1.8,1.8C482.6,186.7,481.7,185.9,481.7,184.9z M482.1,202.8v-14.3h2.9v14.3H482.1z M487.4,201.1l1.3-2.1
	c0.9,1,2.3,1.8,3.8,1.8s2.4-0.7,2.4-1.9c0-2.8-7.1-1.5-7.1-6.7c0-2.2,1.8-4.1,4.9-4.1c2,0,3.6,0.7,4.7,1.8l-1.3,2
	c-0.7-0.8-2-1.5-3.4-1.5c-1.3,0-2.2,0.7-2.2,1.7c0,2.5,7.2,1.5,7.2,6.7c0,2.5-2,4.3-5.2,4.3C490.4,203.2,488.6,202.4,487.4,201.1z
	 M507.8,202.8v-1.5c-0.9,1.2-2.3,1.9-3.8,1.9c-2.3,0-4.4-1.7-4.4-4.7c0-3.1,2.1-4.7,4.4-4.7c1.5,0,3,0.6,3.8,1.8v-2.1
	c0-1.7-1-2.7-2.8-2.7c-1.3,0-2.5,0.5-3.6,1.7l-1.2-2.1c1.4-1.5,3.4-2.1,5.3-2.1c3,0,5.2,1.4,5.2,4.9v9.8H507.8z M507.8,199.7v-2.3
	c-0.6-1.1-1.6-1.5-2.7-1.5c-1.5,0-2.5,1.1-2.5,2.7c0,1.5,1,2.7,2.5,2.7C506.2,201.1,507.3,200.7,507.8,199.7z M514.8,199.6v-8.5
	h-1.9v-2.6h1.9v-3.9h2.9v3.9h2.4v2.6h-2.4v7.9c0,1,0.4,1.6,1.1,1.6c0.5,0,0.9-0.2,1.1-0.5l0.7,2.2c-0.5,0.5-1.4,0.8-2.6,0.8
	C515.8,203.2,514.8,202,514.8,199.6z M522.2,184.9c0-1,0.9-1.8,1.9-1.8c1,0,1.8,0.8,1.8,1.8c0,1-0.8,1.8-1.8,1.8
	C523.1,186.7,522.2,185.9,522.2,184.9z M522.6,202.8v-14.3h2.9v14.3H522.6z M528.3,195.7c0-4,2.2-7.5,6.2-7.5s6.2,3.5,6.2,7.5
	c0,4-2.2,7.5-6.2,7.5S528.3,199.7,528.3,195.7z M537.7,195.7c0-2.6-0.9-4.9-3.1-4.9c-2.2,0-3.2,2.3-3.2,4.9c0,2.6,1,4.9,3.2,4.9
	C536.7,200.6,537.7,198.3,537.7,195.7z M551.5,202.8v-9.7c0-1.7-0.8-2.3-2-2.3c-1.3,0-2.4,1-3,2v10.1h-2.9v-14.3h2.9v1.9
	c0.8-1.2,2.4-2.3,4.2-2.3c2.6,0,3.8,1.4,3.8,3.9v10.7H551.5z M556.8,201.1l1.3-2.1c0.9,1,2.3,1.8,3.8,1.8c1.5,0,2.4-0.7,2.4-1.9
	c0-2.8-7.1-1.5-7.1-6.7c0-2.2,1.8-4.1,4.9-4.1c2,0,3.6,0.7,4.7,1.8l-1.3,2c-0.7-0.8-2-1.5-3.4-1.5c-1.3,0-2.2,0.7-2.2,1.7
	c0,2.5,7.2,1.5,7.2,6.7c0,2.5-2,4.3-5.2,4.3C559.8,203.2,558,202.4,556.8,201.1z M568.9,196.9v-2.5h6.2v2.5H568.9z M579.1,206.7
	l-1.3-1.1c0.9-0.6,1.9-1.8,2.1-2.8c-0.1,0-0.3,0.1-0.5,0.1c-0.9,0-1.7-0.7-1.7-1.8c0-1.1,0.9-1.9,1.9-1.9c1.2,0,2.2,0.9,2.2,2.6
	C581.8,203.8,580.7,205.6,579.1,206.7z M594.3,202.8l-4.8-14.3h3.2l3.2,10.8l3.2-10.8h3.1l-4.8,14.3H594.3z M603.3,195.7
	c0-4.1,2.3-7.5,6.2-7.5c3.9,0,5.9,3.3,5.9,7.6v0.9h-9.1c0.1,2.3,1.4,4.1,3.8,4.1c1.2,0,2.4-0.5,3.3-1.5l1.4,1.8
	c-1.2,1.4-3,2.2-5,2.2C605.8,203.2,603.3,200.1,603.3,195.7z M609.4,190.6c-2.2,0-3.1,2.2-3.2,3.9h6.3
	C612.5,192.8,611.7,190.6,609.4,190.6z M618.1,202.8v-14.3h2.9v2.1c0.9-1.4,2.4-2.4,4-2.4v2.9c-0.2-0.1-0.5-0.1-0.8-0.1
	c-1.2,0-2.6,0.9-3.2,2v9.8H618.1z M635.3,202.8l-3.4-6l-1.7,2.3v3.7h-2.9v-19.7h2.9v12.5l5.1-7h3.4l-4.7,6.4l4.8,7.9H635.3z
	 M639.6,201.1l1.3-2.1c0.9,1,2.3,1.8,3.8,1.8c1.5,0,2.4-0.7,2.4-1.9c0-2.8-7.1-1.5-7.1-6.7c0-2.2,1.8-4.1,4.9-4.1
	c2,0,3.6,0.7,4.7,1.8l-1.3,2c-0.7-0.8-2-1.5-3.4-1.5c-1.3,0-2.2,0.7-2.2,1.7c0,2.5,7.2,1.5,7.2,6.7c0,2.5-2,4.3-5.2,4.3
	C642.6,203.2,640.8,202.4,639.6,201.1z M660,202.8v-1.5c-0.9,1.2-2.3,1.9-3.8,1.9c-2.3,0-4.4-1.7-4.4-4.7c0-3.1,2.1-4.7,4.4-4.7
	c1.5,0,3,0.6,3.8,1.8v-2.1c0-1.7-1-2.7-2.8-2.7c-1.3,0-2.5,0.5-3.6,1.7l-1.2-2.1c1.4-1.5,3.4-2.1,5.3-2.1c3,0,5.2,1.4,5.2,4.9v9.8
	H660z M660,199.7v-2.3c-0.6-1.1-1.6-1.5-2.7-1.5c-1.5,0-2.5,1.1-2.5,2.7c0,1.5,1,2.7,2.5,2.7C658.4,201.1,659.5,200.7,660,199.7z
	 M681.5,202.8v-9.9c0-1.4-0.6-2.1-1.8-2.1c-1.2,0-2.2,1-2.8,2v10.1H674v-9.9c0-1.3-0.5-2.1-1.8-2.1c-1.2,0-2.2,1-2.8,2v10.1h-2.9
	v-14.3h2.9v1.9c0.6-1,2.2-2.3,4-2.3c1.8,0,3,0.9,3.3,2.5c0.7-1.3,2.4-2.5,4.1-2.5c2.2,0,3.5,1.2,3.5,3.8v10.9H681.5z M695.8,202.8
	v-9.8c0-1.7-0.8-2.3-2.1-2.3c-1.3,0-2.4,1-2.9,2v10.1h-3v-19.7h3v7.4c0.8-1.2,2.4-2.3,4.2-2.3c2.6,0,3.8,1.4,3.8,3.8v10.8H695.8z
	 M701.5,195.7c0-4.1,2.3-7.5,6.2-7.5c3.9,0,5.9,3.3,5.9,7.6v0.9h-9.1c0.1,2.3,1.4,4.1,3.8,4.1c1.2,0,2.4-0.5,3.3-1.5l1.4,1.8
	c-1.2,1.4-3,2.2-5,2.2C704.1,203.2,701.5,200.1,701.5,195.7z M707.7,190.6c-2.2,0-3.1,2.2-3.2,3.9h6.3
	C710.8,192.8,710,190.6,707.7,190.6z M716.9,199.6v-8.5H715v-2.6h1.9v-3.9h2.9v3.9h2.4v2.6h-2.4v7.9c0,1,0.4,1.6,1.1,1.6
	c0.5,0,0.9-0.2,1.1-0.5l0.7,2.2c-0.5,0.5-1.4,0.8-2.6,0.8C717.9,203.2,716.9,202,716.9,199.6z M723.6,201.1l1.3-2.1
	c0.9,1,2.3,1.8,3.8,1.8c1.5,0,2.4-0.7,2.4-1.9c0-2.8-7.1-1.5-7.1-6.7c0-2.2,1.8-4.1,4.9-4.1c2,0,3.6,0.7,4.7,1.8l-1.3,2
	c-0.7-0.8-2-1.5-3.4-1.5c-1.3,0-2.2,0.7-2.2,1.7c0,2.5,7.2,1.5,7.2,6.7c0,2.5-2,4.3-5.2,4.3C726.6,203.2,724.8,202.4,723.6,201.1z
	 M735.7,196.9v-2.5h6.2v2.5H735.7z M750.1,195.7c0-4,2.2-7.5,6.2-7.5c4.1,0,6.2,3.5,6.2,7.5c0,4-2.2,7.5-6.2,7.5
	C752.2,203.2,750.1,199.7,750.1,195.7z M759.4,195.7c0-2.6-0.9-4.9-3.1-4.9c-2.2,0-3.2,2.3-3.2,4.9c0,2.6,1,4.9,3.2,4.9
	C758.5,200.6,759.4,198.3,759.4,195.7z M764.6,195.7c0-4.3,2.5-7.5,6.3-7.5c2.1,0,3.5,0.9,4.4,1.9l-1.5,2c-0.7-0.9-1.5-1.3-2.6-1.3
	c-2.2,0-3.6,2.2-3.6,4.9c0,2.7,1.3,4.9,3.6,4.9c1,0,1.9-0.4,2.6-1.3l1.5,2c-0.9,1.1-2.2,1.9-4.4,1.9
	C767,203.2,764.6,200,764.6,195.7z M785.6,202.8v-9.8c0-1.7-0.8-2.3-2.1-2.3c-1.3,0-2.4,1-2.9,2v10.1h-3v-19.7h3v7.4
	c0.8-1.2,2.4-2.3,4.2-2.3c2.6,0,3.8,1.4,3.8,3.8v10.8H785.6z M805.7,202.8v-1.5c-0.9,1.2-2.3,1.9-3.8,1.9c-2.3,0-4.4-1.7-4.4-4.7
	c0-3.1,2.1-4.7,4.4-4.7c1.5,0,3,0.6,3.8,1.8v-2.1c0-1.7-1-2.7-2.8-2.7c-1.3,0-2.5,0.5-3.6,1.7l-1.2-2.1c1.4-1.5,3.4-2.1,5.3-2.1
	c3,0,5.2,1.4,5.2,4.9v9.8H805.7z M805.7,199.7v-2.3c-0.6-1.1-1.6-1.5-2.7-1.5c-1.5,0-2.5,1.1-2.5,2.7c0,1.5,1,2.7,2.5,2.7
	C804,201.1,805.1,200.7,805.7,199.7z M812.7,202.8v-11.7h-1.9v-2.6h1.9v-1.3c0-2.8,1.5-4.4,4-4.4c1.1,0,2.1,0.3,2.8,1l-1,2.1
	c-0.4-0.4-0.8-0.6-1.3-0.6c-1,0-1.6,0.7-1.6,1.9v1.3h2.4v2.6h-2.4v11.7H812.7z M820.8,202.8v-11.7h-1.9v-2.6h1.9v-1.3
	c0-2.8,1.5-4.4,4-4.4c1.1,0,2.1,0.3,2.8,1l-1,2.1c-0.4-0.4-0.8-0.6-1.3-0.6c-1,0-1.6,0.7-1.6,1.9v1.3h2.4v2.6h-2.4v11.7H820.8z
	 M835.7,202.8v-1.5c-0.9,1.2-2.3,1.9-3.8,1.9c-2.3,0-4.4-1.7-4.4-4.7c0-3.1,2.1-4.7,4.4-4.7c1.5,0,3,0.6,3.8,1.8v-2.1
	c0-1.7-1-2.7-2.8-2.7c-1.3,0-2.5,0.5-3.6,1.7l-1.2-2.1c1.4-1.5,3.4-2.1,5.3-2.1c3,0,5.2,1.4,5.2,4.9v9.8H835.7z M830.7,186.5
	c-0.9,0-1.7-0.7-1.7-1.7c0-0.9,0.7-1.7,1.7-1.7c0.9,0,1.7,0.7,1.7,1.7C832.4,185.8,831.6,186.5,830.7,186.5z M835.7,199.7v-2.3
	c-0.6-1.1-1.6-1.5-2.7-1.5c-1.5,0-2.5,1.1-2.5,2.7c0,1.5,1,2.7,2.5,2.7C834,201.1,835.1,200.7,835.7,199.7z M836.1,186.5
	c-0.9,0-1.7-0.7-1.7-1.7c0-0.9,0.7-1.7,1.7-1.7c0.9,0,1.7,0.7,1.7,1.7C837.8,185.8,837,186.5,836.1,186.5z M842.1,202.8v-14.3h2.9
	v2.1c0.9-1.4,2.4-2.4,4-2.4v2.9c-0.2-0.1-0.5-0.1-0.8-0.1c-1.2,0-2.6,0.9-3.2,2v9.8H842.1z M850.1,201.1l1.3-2.1
	c0.9,1,2.3,1.8,3.8,1.8c1.5,0,2.4-0.7,2.4-1.9c0-2.8-7.1-1.5-7.1-6.7c0-2.2,1.8-4.1,4.9-4.1c2,0,3.6,0.7,4.7,1.8l-1.3,2
	c-0.7-0.8-2-1.5-3.4-1.5c-1.3,0-2.2,0.7-2.2,1.7c0,2.5,7.2,1.5,7.2,6.7c0,2.5-2,4.3-5.2,4.3C853.2,203.2,851.3,202.4,850.1,201.1z
	 M871.1,202.8V201c-0.8,1.2-2.4,2.2-4.2,2.2c-2.6,0-3.8-1.4-3.8-3.8v-10.8h2.9v9.8c0,1.7,0.8,2.3,2.1,2.3c1.3,0,2.4-0.9,2.9-1.9
	v-10.1h2.9v14.3H871.1z M878,199.6v-8.5h-1.9v-2.6h1.9v-3.9h2.9v3.9h2.4v2.6H881v7.9c0,1,0.4,1.6,1.1,1.6c0.5,0,0.9-0.2,1.1-0.5
	l0.7,2.2c-0.5,0.5-1.4,0.8-2.6,0.8C879.1,203.2,878,202,878,199.6z M888.9,202.8l-4.8-14.3h3.2l3.2,10.8l3.2-10.8h3.1l-4.8,14.3
	H888.9z M897.9,195.7c0-4.1,2.3-7.5,6.2-7.5c3.9,0,5.9,3.3,5.9,7.6v0.9h-9.1c0.1,2.3,1.4,4.1,3.8,4.1c1.2,0,2.4-0.5,3.3-1.5l1.4,1.8
	c-1.2,1.4-3,2.2-5,2.2C900.4,203.2,897.9,200.1,897.9,195.7z M904,190.6c-2.2,0-3.1,2.2-3.2,3.9h6.3
	C907.1,192.8,906.3,190.6,904,190.6z M912,195.7c0-4.3,2.5-7.5,6.3-7.5c2.1,0,3.5,0.9,4.4,1.9l-1.5,2c-0.7-0.9-1.5-1.3-2.6-1.3
	c-2.2,0-3.6,2.2-3.6,4.9c0,2.7,1.3,4.9,3.6,4.9c1,0,1.9-0.4,2.6-1.3l1.5,2c-0.9,1.1-2.2,1.9-4.4,1.9C914.5,203.2,912,200,912,195.7z
	 M933.1,202.8l-3.4-6l-1.7,2.3v3.7H925v-19.7h2.9v12.5l5.1-7h3.4l-4.7,6.4l4.8,7.9H933.1z M938.6,202.8v-19.7h2.9v19.7H938.6z
	 M944.6,184.9c0-1,0.9-1.8,1.9-1.8c1,0,1.8,0.8,1.8,1.8c0,1-0.8,1.8-1.8,1.8C945.5,186.7,944.6,185.9,944.6,184.9z M945,202.8v-14.3
	h2.9v14.3H945z M959.3,202.8v-9.7c0-1.7-0.8-2.3-2-2.3c-1.3,0-2.4,1-3,2v10.1h-2.9v-14.3h2.9v1.9c0.8-1.2,2.4-2.3,4.2-2.3
	c2.6,0,3.8,1.4,3.8,3.9v10.7H959.3z M965.7,206.8l1.2-2.3c0.9,1.1,2.2,1.6,3.7,1.6c1.8,0,3.4-1,3.4-3.5v-2.1
	c-0.9,1.4-2.2,2.3-3.7,2.3c-3.2,0-5.2-2.7-5.2-7.3c0-4.5,2-7.3,5.2-7.3c1.4,0,2.8,0.7,3.7,2.3v-1.9h2.9v14.1c0,4.6-3.1,6-6.2,6
	C968.7,208.6,967.1,208.2,965.7,206.8z M974,198.3v-5.5c-0.5-1.1-1.7-2-2.8-2c-2.1,0-3.1,2-3.1,4.7c0,2.8,1,4.7,3.1,4.7
	C972.3,200.2,973.5,199.3,974,198.3z"/>
<text transform="matrix(1 0 0 1 96.6167 347.6425)" class="st2 st3 st4">Modul</text>
<text transform="matrix(1 0 0 1 39.5791 386.2197)" class="st2 st3 st4">Företagsledning</text>
<text transform="matrix(1 0 0 1 384.2886 347.6425)" class="st2 st3 st4">Modul</text>
<text transform="matrix(1 0 0 1 381.833 386.2197)" class="st2 st3 st4">Chefer</text>
<text transform="matrix(1 0 0 1 672.5522 347.6425)" class="st2 st3 st4">Modul</text>
<text transform="matrix(1 0 0 1 599.0366 386.2197)"><tspan x="0" y="0" class="st2 st3 st4">HR </tspan><tspan x="39.6" y="0" class="st2 st3 st4">K</tspan><tspan x="54.5" y="0" class="st2 st3 st4">ommunikation</tspan></text>
<text transform="matrix(1 0 0 1 957.7983 347.6425)" class="st2 st3 st4">Modul</text>
<text transform="matrix(1 0 0 1 919.8423 386.2197)" class="st2 st3 st4">Medarbetare</text>
<polygon class="st1" points="992.4,241.4 992.4,268.2 1003.3,268.2 984.1,284.4 964.3,268.2 975.5,268.2 975.5,241.4 "/>
<polygon class="st1" points="713.9,243.4 713.9,268.2 724.8,268.2 705.7,284.4 685.8,268.2 697,268.2 697,243.4 "/>
<polygon class="st1" points="428.3,242.1 428.3,268.2 439.3,268.2 420.1,284.4 400.3,268.2 411.5,268.2 411.5,242.1 "/>
<polygon class="st1" points="144.7,243.1 144.7,268.2 155.7,268.2 136.5,284.4 116.6,268.2 127.9,268.2 127.9,243.1 "/>
<rect x="256" y="352.1" class="st0" width="39.5" height="16.9"/>
<rect x="542.5" y="352.1" class="st0" width="37.2" height="16.9"/>
<rect x="830.7" y="352.4" class="st0" width="36.5" height="16.9"/>
<line class="st5" x1="536.5" y1="29" x2="579.5" y2="29"/>
<line class="st6" x1="536.5" y1="91.8" x2="579.5" y2="91.8"/>
<line class="st7" x1="536.5" y1="60.2" x2="572.4" y2="60.2"/>
<line class="st7" x1="684.1" y1="91.9" x2="684.1" y2="28.6"/>
<line class="st5" x1="709.4" y1="69.4" x2="709.4" y2="28.6"/>
<line class="st6" x1="656.5" y1="92.2" x2="656.6" y2="28.6"/>
<line class="st5" x1="603.3" y1="92.2" x2="603.4" y2="28.6"/>
<line class="st7" x1="603.4" y1="28.6" x2="656.6" y2="92.1"/>
<path class="st6" d="M709.4,69.9c1.1,13.1,12.9,22.8,26.3,22.8c14.3,0,25.1-9.2,26.6-23.2"/>
<line class="st6" x1="327.1" y1="60.4" x2="350.9" y2="60.4"/>
<path class="st5" d="M351.2,36.6c-5.9-5.8-13.9-9.3-22.8-9.3"/>
<path class="st5" d="M295.8,59.8c0,17.9,14.5,32.4,32.4,32.4"/>
<path class="st7" d="M328.3,92.3c8.4,0,16.7-3.3,22.4-8.6"/>
<path class="st6" d="M404.5,92.3c18.5,0,33.5-15,33.5-33.5"/>
<path class="st5" d="M404.5,25.2c-18.5,0-33.5,15-33.5,33.5"/>
<path class="st7" d="M438,58.7c0-18.5-15-33.5-33.5-33.5"/>
<line class="st7" x1="351" y1="60.5" x2="351" y2="83.1"/>
<polyline class="st6" points="488.6,60.4 512.7,60.4 512.7,83.1 "/>
<path class="st5" d="M512.7,36.6c-5.9-5.8-13.9-9.3-22.7-9.3"/>
<path class="st7" d="M457.3,59.8c0,17.9,14.5,32.4,32.4,32.4"/>
<path class="st7" d="M489.7,92.3c8.4,0,16.7-3.3,22.5-8.6"/>
<path class="st7" d="M803.3,26.5c8.3,0.4,16.6,3.6,20.2,6.1"/>
<path class="st7" d="M826.7,76.5c-0.7-7.9-6-11.9-12.2-14.2c-3.6-1.4-7.5-2.2-11.4-3.1"/>
<path class="st6" d="M779.7,84.8c7.7,5.2,16.7,7.9,23.7,8.4"/>
<path class="st5" d="M802.8,59c-2-0.5-4.1-1-6.1-1.6c-8.4-2.7-13.5-7.5-13.2-16.2c0.4-10,9.1-14.6,17.8-14.7c0.5,0,1,0,1.5,0"/>
<g>
	<defs>
		<path id="SVGID_1_" d="M803.2,59"/>
	</defs>
	<clipPath id="SVGID_2_">
		<use xlink:href="#SVGID_1_"  style="overflow:visible;"/>
	</clipPath>
</g>
<path class="st8" d="M335.1,92.3c0-3.9-3.1-7-7-7c-3.9,0-7,3.1-7,7c0,3.9,3.1,7,7,7C331.9,99.3,335.1,96.2,335.1,92.3"/>
<path class="st9" d="M411.5,25.2c0-3.9-3.1-7-7-7c-3.9,0-7,3.1-7,7c0,3.9,3.1,7,7,7C408.3,32.2,411.5,29.1,411.5,25.2"/>
<path class="st10" d="M445,58.7c0-3.9-3.1-7-7-7c-3.9,0-7,3.1-7,7c0,3.9,3.1,7,7,7C441.8,65.7,445,62.5,445,58.7"/>
<path class="st10" d="M496.9,92.3c0-3.9-3.1-7-7-7c-3.9,0-7,3.1-7,7c0,3.9,3.1,7,7,7C493.7,99.3,496.9,96.2,496.9,92.3"/>
<path class="st10" d="M519.2,83.7c0-3.9-3.1-7-7-7c-3.9,0-7,3.1-7,7c0,3.9,3.1,7,7,7C516.1,90.7,519.2,87.5,519.2,83.7"/>
<path class="st11" d="M716.4,69.9c0-3.9-3.1-7-7-7c-3.9,0-7,3.1-7,7c0,3.9,3.1,7,7,7C713.3,76.9,716.4,73.8,716.4,69.9"/>
<path class="st12" d="M809.8,26.4c0-3.9-3.1-7-7-7c-3.9,0-7,3.1-7,7c0,3.9,3.1,7,7,7C806.6,33.4,809.8,30.3,809.8,26.4"/>
<path class="st12" d="M809.8,59c0-3.9-3.1-7-7-7c-3.9,0-7,3.1-7,7c0,3.9,3.1,7,7,7C806.6,66,809.8,62.9,809.8,59"/>
<path class="st12" d="M608.6,23.9c0,0-0.1-0.1-0.1-0.1c0,0-0.1-0.1-0.1-0.1c-0.1,0-0.1-0.1-0.2-0.1c0,0-0.1-0.1-0.1-0.1
	c-0.1-0.1-0.1-0.1-0.2-0.2c0,0,0,0-0.1-0.1c-0.1-0.1-0.1-0.1-0.2-0.2c0,0,0,0-0.1-0.1c-0.1,0-0.1-0.1-0.2-0.1c0,0,0,0-0.1,0
	c-0.1,0-0.1-0.1-0.2-0.1c0,0-0.1,0-0.1-0.1c-0.1,0-0.1-0.1-0.2-0.1c0,0-0.1,0-0.1-0.1c-0.1,0-0.1-0.1-0.2-0.1c0,0-0.1,0-0.1-0.1
	c0,0-0.1,0-0.1-0.1c-0.1,0-0.1-0.1-0.2-0.1c0,0-0.1,0-0.1,0c-0.1,0-0.1-0.1-0.2-0.1c0,0-0.1,0-0.1,0c-0.1,0-0.2,0-0.2-0.1
	c0,0-0.1,0-0.1,0c-0.1,0-0.2,0-0.2-0.1c0,0-0.1,0-0.1,0c-0.1,0-0.2,0-0.2-0.1c0,0-0.1,0-0.1,0c-0.1,0-0.2,0-0.2,0c0,0-0.1,0-0.1,0
	c-0.1,0-0.1,0-0.2,0c-0.1,0-0.1,0-0.2,0c-0.1,0-0.1,0-0.2,0c-0.1,0-0.1,0-0.2,0c0,0-0.1,0-0.1,0c-0.1,0-0.2,0-0.3,0c0,0-0.1,0-0.1,0
	c-0.1,0-0.2,0-0.3,0c0,0,0,0,0,0c-0.1,0-0.2,0-0.3,0c0,0-0.1,0-0.1,0c-0.1,0-0.2,0-0.2,0c-0.1,0-0.1,0-0.2,0c-0.1,0-0.1,0-0.2,0
	c-0.1,0-0.1,0-0.2,0c-0.1,0-0.1,0-0.2,0c-0.1,0-0.1,0-0.2,0.1c0,0-0.1,0-0.2,0.1c-0.1,0-0.1,0-0.2,0.1c-0.1,0-0.1,0-0.2,0.1
	c-0.1,0-0.1,0-0.2,0.1c0,0-0.1,0-0.1,0.1c-0.1,0-0.1,0.1-0.2,0.1c0,0-0.1,0-0.1,0.1c-0.2,0.1-0.4,0.2-0.6,0.4c0,0,0,0-0.1,0
	c-0.1,0.1-0.2,0.1-0.2,0.2c0,0-0.1,0-0.1,0.1c-0.1,0-0.1,0.1-0.2,0.2c0,0-0.1,0.1-0.1,0.1c-0.1,0-0.1,0.1-0.1,0.1
	c0,0-0.1,0.1-0.1,0.1c0,0-0.1,0.1-0.1,0.1c-0.1,0.1-0.1,0.1-0.2,0.2c0,0-0.1,0.1-0.1,0.1c-0.1,0.1-0.1,0.1-0.2,0.2c0,0,0,0-0.1,0.1
	c-0.1,0.1-0.1,0.1-0.2,0.2c0,0,0,0,0,0.1c-0.1,0.1-0.1,0.1-0.2,0.2c0,0,0,0,0,0.1c0,0.1-0.1,0.1-0.1,0.2c0,0,0,0.1,0,0.1
	c0,0.1-0.1,0.1-0.1,0.2c0,0,0,0.1-0.1,0.1c0,0.1-0.1,0.1-0.1,0.2c0,0,0,0.1-0.1,0.1c0,0.1,0,0.1-0.1,0.2c0,0.1,0,0.1-0.1,0.2
	c0,0,0,0.1,0,0.1c0,0.1-0.1,0.1-0.1,0.2c0,0,0,0.1,0,0.1c0,0.1,0,0.2-0.1,0.2c0,0,0,0.1,0,0.1c0,0.1,0,0.2-0.1,0.2c0,0,0,0.1,0,0.1
	c0,0.1,0,0.2-0.1,0.2c0,0,0,0.1,0,0.1c0,0.1,0,0.2,0,0.2c0,0,0,0.1,0,0.1c0,0.1,0,0.1,0,0.2c0,0.1,0,0.1,0,0.2c0,0.1,0,0.1,0,0.2
	c0,0.1,0,0.1,0,0.2c0,1.6,0.5,3.3,1.6,4.6l12.3,14.7l0-19.2c0-1.8-0.6-3.4-1.7-4.6C608.7,24,608.6,24,608.6,23.9"/>
<path class="st10" d="M651.4,96.9c0,0,0.1,0.1,0.1,0.1c0,0,0.1,0.1,0.1,0.1c0,0,0.1,0.1,0.2,0.1c0,0,0.1,0.1,0.1,0.1
	c0.1,0.1,0.1,0.1,0.2,0.2c0,0,0,0,0.1,0.1c0.1,0.1,0.1,0.1,0.2,0.2c0,0,0,0,0.1,0.1c0.1,0,0.1,0.1,0.2,0.1c0,0,0,0,0.1,0
	c0.1,0,0.1,0.1,0.2,0.1c0,0,0.1,0,0.1,0.1c0.1,0,0.1,0.1,0.2,0.1c0,0,0.1,0,0.1,0.1c0.1,0,0.1,0.1,0.2,0.1c0,0,0.1,0,0.1,0.1
	c0,0,0.1,0,0.1,0.1c0.1,0,0.1,0.1,0.2,0.1c0,0,0.1,0,0.1,0c0.1,0,0.1,0.1,0.2,0.1c0,0,0.1,0,0.1,0c0.1,0,0.2,0,0.2,0.1
	c0,0,0.1,0,0.1,0c0.1,0,0.2,0,0.2,0.1c0,0,0.1,0,0.1,0c0.1,0,0.2,0,0.2,0.1c0,0,0.1,0,0.1,0c0.1,0,0.2,0,0.2,0c0,0,0.1,0,0.1,0
	c0.1,0,0.1,0,0.2,0c0.1,0,0.1,0,0.2,0c0.1,0,0.1,0,0.2,0c0.1,0,0.1,0,0.2,0c0,0,0.1,0,0.1,0c0.1,0,0.2,0,0.3,0c0,0,0.1,0,0.1,0
	c0.1,0,0.2,0,0.3,0c0,0,0,0,0,0c0.1,0,0.2,0,0.3,0c0,0,0.1,0,0.1,0c0.1,0,0.2,0,0.2,0c0.1,0,0.1,0,0.2,0c0.1,0,0.1,0,0.2,0
	c0.1,0,0.1,0,0.2,0c0,0,0.1,0,0.2,0c0.1,0,0.1,0,0.2-0.1c0.1,0,0.1,0,0.2-0.1c0.1,0,0.1,0,0.2-0.1c0.1,0,0.1,0,0.2-0.1
	c0.1,0,0.1,0,0.2-0.1c0,0,0.1,0,0.1-0.1c0.1,0,0.1-0.1,0.2-0.1c0,0,0.1,0,0.1-0.1c0.2-0.1,0.4-0.2,0.6-0.4c0,0,0,0,0.1,0
	c0.1-0.1,0.2-0.1,0.2-0.2c0,0,0.1,0,0.1-0.1c0.1-0.1,0.1-0.1,0.2-0.2c0,0,0.1-0.1,0.1-0.1c0,0,0.1-0.1,0.1-0.1c0,0,0.1-0.1,0.1-0.1
	c0,0,0.1-0.1,0.1-0.1c0.1-0.1,0.1-0.1,0.2-0.2c0,0,0-0.1,0.1-0.1c0.1-0.1,0.1-0.1,0.2-0.2c0,0,0,0,0.1-0.1c0.1-0.1,0.1-0.1,0.2-0.2
	c0,0,0,0,0-0.1c0.1-0.1,0.1-0.1,0.2-0.2c0,0,0,0,0-0.1c0-0.1,0.1-0.1,0.1-0.2c0,0,0-0.1,0-0.1c0-0.1,0.1-0.1,0.1-0.2
	c0,0,0-0.1,0.1-0.1c0-0.1,0.1-0.1,0.1-0.2c0,0,0-0.1,0.1-0.1c0-0.1,0-0.1,0.1-0.2c0-0.1,0.1-0.1,0.1-0.2c0,0,0-0.1,0-0.1
	c0-0.1,0.1-0.1,0.1-0.2c0,0,0-0.1,0-0.1c0-0.1,0.1-0.2,0.1-0.2c0,0,0-0.1,0-0.1c0-0.1,0-0.2,0.1-0.2c0,0,0-0.1,0-0.1
	c0-0.1,0-0.2,0.1-0.2c0,0,0-0.1,0-0.1c0-0.1,0-0.2,0-0.2c0,0,0-0.1,0-0.1c0-0.1,0-0.1,0-0.2c0-0.1,0-0.1,0-0.2c0-0.1,0-0.1,0-0.2
	c0-0.1,0-0.1,0-0.2c0-1.6-0.5-3.3-1.6-4.6L649.6,73l0,19.2c0,1.8,0.6,3.4,1.7,4.6C651.4,96.8,651.4,96.9,651.4,96.9"/>
<g>
	<defs>
		<rect id="SVGID_3_" x="829.7" width="16.5" height="25.7"/>
	</defs>
	<clipPath id="SVGID_4_">
		<use xlink:href="#SVGID_3_"  style="overflow:visible;"/>
	</clipPath>
	<g class="st13">
		<text transform="matrix(1 0 0 1 829.7422 19.7451)" class="st12 st14 st15">®</text>
	</g>
</g>
<path class="st10" d="M346,78.6c-0.6,0.6-1.3,1.1-2,1.6v3c0,3.9,3.1,7,7,7c2.4,0,4.6-1.3,5.8-3.1c1.4-2.6,1.1-5.8-1-8.1
	C353.2,76.1,348.8,76,346,78.6"/>
<path class="st10" d="M351,67.4c3.9,0,7-3.1,7-7c0-1.9-0.8-3.6-2-4.9c-1.3-1.2-3-2-4.9-2c-3.9,0-7,3.1-7,7v6.9H351z"/>
</svg>
