<?xml version="1.0" encoding="utf-8"?>
<!-- Generator: Adobe Illustrator 19.2.0, SVG Export Plug-In . SVG Version: 6.00 Build 0)  -->
<svg version="1.1" id="Lager_1" xmlns="http://www.w3.org/2000/svg" xmlns:xlink="http://www.w3.org/1999/xlink" x="0px" y="0px"
	 width="682px" height="262.1px" viewBox="0 0 682 262.1" style="enable-background:new 0 0 682 262.1;" xml:space="preserve">
<style type="text/css">
	.st0{fill:#638896;}
	.st1{fill:#1DC454;}
	.st2{fill:#FFFFFF;}
	.st3{fill:none;stroke:#979797;stroke-width:8.4909;stroke-linecap:round;stroke-linejoin:round;stroke-miterlimit:10;}
	.st4{fill:none;stroke:#B7B7B7;stroke-width:8.4909;stroke-linecap:round;stroke-linejoin:round;stroke-miterlimit:10;}
	.st5{fill:none;stroke:#ABABAB;stroke-width:8.4909;stroke-linecap:round;stroke-linejoin:round;stroke-miterlimit:10;}
	
		.st6{opacity:0.94;fill:none;stroke:#949494;stroke-width:8.4909;stroke-linecap:round;stroke-linejoin:round;stroke-miterlimit:10;}
	.st7{fill:#8B8B8B;}
	.st8{fill:#8C8C8C;}
	.st9{fill:#9C9C9C;}
	.st10{fill:#A4A4A4;}
	.st11{fill:#8F8F8F;}
	.st12{opacity:0.94;fill:#8F8F8F;}
	.st13{font-family:'Avenir-Book';}
	.st14{font-size:12.4828px;}
</style>
<g>
	<path class="st0" d="M327,262.1H180.4c-3.2,0-5.9-2.6-5.9-5.9v-74.4c0-3.2,2.6-5.9,5.9-5.9H327c3.2,0,5.9,2.6,5.9,5.9v74.4
		C332.9,259.5,330.2,262.1,327,262.1z"/>
	<path class="st0" d="M501.6,262.1H354.9c-3.2,0-5.9-2.6-5.9-5.9v-74.4c0-3.2,2.6-5.9,5.9-5.9h146.6c3.2,0,5.9,2.6,5.9,5.9v74.4
		C507.4,259.5,504.8,262.1,501.6,262.1z"/>
	<path class="st0" d="M676.1,262.1H529.5c-3.2,0-5.9-2.6-5.9-5.9v-74.4c0-3.2,2.6-5.9,5.9-5.9h146.6c3.2,0,5.9,2.6,5.9,5.9v74.4
		C682,259.5,679.4,262.1,676.1,262.1z"/>
	<path class="st1" d="M635.4,150.6H43.1c-3.2,0-5.9-2.6-5.9-5.9V92.4c0-3.2,2.6-5.9,5.9-5.9h592.3c3.2,0,5.9,2.6,5.9,5.9v52.3
		C641.3,147.9,638.7,150.6,635.4,150.6z"/>
	<path class="st0" d="M152.5,262.1H5.9c-3.2,0-5.9-2.6-5.9-5.9v-74.4c0-3.2,2.6-5.9,5.9-5.9h146.6c3.2,0,5.9,2.6,5.9,5.9v74.4
		C158.4,259.5,155.7,262.1,152.5,262.1z"/>
	<g>
		<g>
			<path class="st2" d="M85.4,111.1h2v10.2h4.1v1.8h-6.1V111.1z"/>
			<path class="st2" d="M96.1,114.2c2.4,0,3.6,2,3.6,4.6v0.5h-5.5c0.1,1.4,0.9,2.5,2.3,2.5c0.7,0,1.5-0.3,2-0.9l0.9,1.1
				c-0.7,0.8-1.8,1.3-3,1.3c-2.4,0-3.9-1.9-3.9-4.6C92.4,116.3,93.8,114.2,96.1,114.2z M94.2,118.1H98c0-1.1-0.5-2.4-1.9-2.4
				C94.8,115.7,94.3,117,94.2,118.1z"/>
			<path class="st2" d="M106.3,122c-0.5,0.9-1.4,1.4-2.2,1.4c-1.9,0-3.2-1.8-3.2-4.5c0-2.7,1.2-4.6,3.2-4.6c0.8,0,1.7,0.4,2.2,1.4
				v-4.5h1.8v12h-1.8V122z M106.3,117c-0.3-0.6-1-1.2-1.7-1.2c-1.2,0-1.8,1.3-1.8,3c0,1.7,0.6,3,1.8,3c0.7,0,1.4-0.5,1.7-1.2V117z"
				/>
			<path class="st2" d="M115,117.2c0-1-0.5-1.4-1.2-1.4c-0.8,0-1.4,0.6-1.8,1.2v6.1h-1.8v-8.7h1.8v1.2c0.5-0.7,1.4-1.4,2.5-1.4
				c1.6,0,2.3,0.9,2.3,2.4v6.5H115V117.2z"/>
			<path class="st2" d="M118.7,112.2c0-0.6,0.5-1.1,1.1-1.1c0.6,0,1.1,0.5,1.1,1.1c0,0.6-0.5,1.1-1.1,1.1
				C119.2,113.3,118.7,112.8,118.7,112.2z M118.9,114.4h1.8v8.7h-1.8V114.4z"/>
			<path class="st2" d="M127.6,117.2c0-1-0.5-1.4-1.2-1.4c-0.8,0-1.4,0.6-1.8,1.2v6.1h-1.8v-8.7h1.8v1.2c0.5-0.7,1.4-1.4,2.5-1.4
				c1.6,0,2.3,0.9,2.3,2.4v6.5h-1.8V117.2z"/>
			<path class="st2" d="M132.2,124.2c0.6,0.6,1.3,1,2.2,1c1.1,0,2-0.6,2-2.2v-1.2c-0.5,0.9-1.4,1.4-2.2,1.4c-1.9,0-3.2-1.7-3.2-4.5
				c0-2.7,1.2-4.5,3.2-4.5c0.8,0,1.7,0.4,2.2,1.4v-1.2h1.8v8.4c0,3-1.9,3.8-3.7,3.8c-1.2,0-2.2-0.3-3.1-1.1L132.2,124.2z M136.5,117
				c-0.3-0.6-1-1.2-1.7-1.2c-1.2,0-1.8,1.2-1.8,2.9c0,1.7,0.6,2.9,1.8,2.9c0.7,0,1.4-0.5,1.7-1.2V117z"/>
			<path class="st2" d="M143.8,118.8c0-2.4,1.3-4.5,3.8-4.5c2.5,0,3.8,2.1,3.8,4.5s-1.3,4.6-3.8,4.6
				C145.1,123.3,143.8,121.2,143.8,118.8z M149.4,118.8c0-1.6-0.6-3-1.9-3c-1.3,0-1.9,1.4-1.9,3s0.6,3,1.9,3
				C148.8,121.8,149.4,120.3,149.4,118.8z"/>
			<path class="st2" d="M156.4,114.2c1.3,0,2.1,0.5,2.6,1.2l-0.9,1.2c-0.4-0.6-0.9-0.8-1.5-0.8c-1.4,0-2.1,1.3-2.1,3s0.8,3,2.1,3
				c0.6,0,1.1-0.3,1.5-0.8l0.9,1.2c-0.5,0.6-1.3,1.2-2.6,1.2c-2.3,0-3.8-1.9-3.8-4.6S154,114.2,156.4,114.2z"/>
			<path class="st2" d="M165.2,117.2c0-1-0.5-1.4-1.3-1.4c-0.8,0-1.4,0.6-1.8,1.2v6.1h-1.8v-12h1.8v4.5c0.5-0.7,1.5-1.4,2.5-1.4
				c1.5,0,2.3,0.8,2.3,2.3v6.6h-1.8V117.2z"/>
			<path class="st2" d="M173.1,120.8c0.5,0.6,1.4,1.1,2.3,1.1c0.9,0,1.4-0.4,1.4-1.1c0-0.7-0.8-1-1.6-1.3c-1.2-0.4-2.7-1-2.7-2.8
				c0-1.3,1.1-2.5,3-2.5c1.2,0,2.2,0.4,2.9,1.1l-0.8,1.2c-0.4-0.5-1.2-0.9-2.1-0.9c-0.8,0-1.3,0.4-1.3,1c0,0.6,0.7,0.9,1.6,1.2
				c1.2,0.4,2.7,1,2.7,2.9c0,1.5-1.2,2.6-3.1,2.6c-1.3,0-2.4-0.4-3.2-1.2L173.1,120.8z"/>
			<path class="st2" d="M180.5,121.2V116h-1.1v-1.6h1.1v-2.4h1.8v2.4h1.4v1.6h-1.4v4.8c0,0.6,0.2,1,0.7,1c0.3,0,0.6-0.1,0.7-0.3
				l0.4,1.3c-0.3,0.3-0.8,0.5-1.6,0.5C181.1,123.3,180.5,122.6,180.5,121.2z"/>
			<path class="st2" d="M185.8,125.1c0.5,0,0.8-0.2,1-0.7l0.4-1l-2.9-8.9h1.9l1.9,6.5l1.9-6.5h1.9l-3.4,10.3
				c-0.5,1.5-1.3,1.9-2.6,1.9c-0.3,0-0.7-0.1-1-0.1l0.3-1.6C185.4,125,185.6,125.1,185.8,125.1z"/>
			<path class="st2" d="M192.9,114.4h1.8v1.3c0.5-0.8,1.4-1.5,2.4-1.5v1.8c-0.1,0-0.3-0.1-0.5-0.1c-0.7,0-1.6,0.6-1.9,1.2v5.9h-1.8
				V114.4z"/>
			<path class="st2" d="M203.3,117.2c0-1-0.5-1.4-1.2-1.4c-0.8,0-1.4,0.6-1.8,1.2v6.1h-1.8v-8.7h1.8v1.2c0.5-0.7,1.4-1.4,2.5-1.4
				c1.6,0,2.3,0.9,2.3,2.4v6.5h-1.8V117.2z"/>
			<path class="st2" d="M207,112.2c0-0.6,0.5-1.1,1.1-1.1c0.6,0,1.1,0.5,1.1,1.1c0,0.6-0.5,1.1-1.1,1.1
				C207.5,113.3,207,112.8,207,112.2z M207.2,114.4h1.8v8.7h-1.8V114.4z"/>
			<path class="st2" d="M215.9,117.2c0-1-0.5-1.4-1.2-1.4c-0.8,0-1.4,0.6-1.8,1.2v6.1h-1.8v-8.7h1.8v1.2c0.5-0.7,1.4-1.4,2.5-1.4
				c1.6,0,2.3,0.9,2.3,2.4v6.5h-1.8V117.2z"/>
			<path class="st2" d="M220.5,124.2c0.6,0.6,1.3,1,2.2,1c1.1,0,2-0.6,2-2.2v-1.2c-0.5,0.9-1.4,1.4-2.2,1.4c-1.9,0-3.2-1.7-3.2-4.5
				c0-2.7,1.2-4.5,3.2-4.5c0.8,0,1.7,0.4,2.2,1.4v-1.2h1.8v8.4c0,3-1.9,3.8-3.7,3.8c-1.2,0-2.2-0.3-3.1-1.1L220.5,124.2z M224.8,117
				c-0.3-0.6-1-1.2-1.7-1.2c-1.2,0-1.8,1.2-1.8,2.9c0,1.7,0.6,2.9,1.8,2.9c0.7,0,1.4-0.5,1.7-1.2V117z"/>
			<path class="st2" d="M237,122.2c-0.5,0.7-1.4,1.1-2.3,1.1c-1.4,0-2.7-1-2.7-2.9c0-1.9,1.3-2.8,2.7-2.8c0.9,0,1.8,0.3,2.3,1v-1.3
				c0-1-0.6-1.7-1.7-1.7c-0.8,0-1.5,0.3-2.2,1l-0.7-1.3c0.9-0.9,2.1-1.3,3.2-1.3c1.8,0,3.1,0.8,3.1,3v5.9H237V122.2z M237,119.8
				c-0.3-0.6-1-1-1.6-1c-0.9,0-1.5,0.7-1.5,1.6c0,0.9,0.6,1.6,1.5,1.6c0.6,0,1.3-0.4,1.6-1V119.8z"/>
			<path class="st2" d="M239.8,114.4h1.9l1.9,6.5l1.9-6.5h1.9l-2.9,8.7h-1.9L239.8,114.4z"/>
			<path class="st2" d="M252,118.8c0-2.4,1.3-4.5,3.8-4.5c2.5,0,3.8,2.1,3.8,4.5s-1.3,4.6-3.8,4.6C253.2,123.3,252,121.2,252,118.8z
				 M257.6,118.8c0-1.6-0.6-3-1.9-3c-1.3,0-1.9,1.4-1.9,3s0.6,3,1.9,3C257,121.8,257.6,120.3,257.6,118.8z"/>
			<path class="st2" d="M261.1,114.4h1.8v1.3c0.5-0.8,1.4-1.5,2.4-1.5v1.8c-0.1,0-0.3-0.1-0.5-0.1c-0.7,0-1.6,0.6-1.9,1.2v5.9h-1.8
				V114.4z"/>
			<path class="st2" d="M267.3,124.2c0.6,0.6,1.3,1,2.2,1c1.1,0,2-0.6,2-2.2v-1.2c-0.5,0.9-1.4,1.4-2.2,1.4c-1.9,0-3.2-1.7-3.2-4.5
				c0-2.7,1.2-4.5,3.2-4.5c0.8,0,1.7,0.4,2.2,1.4v-1.2h1.8v8.4c0,3-1.9,3.8-3.7,3.8c-1.2,0-2.2-0.3-3.1-1.1L267.3,124.2z M271.6,117
				c-0.3-0.6-1-1.2-1.7-1.2c-1.2,0-1.8,1.2-1.8,2.9c0,1.7,0.6,2.9,1.8,2.9c0.7,0,1.4-0.5,1.7-1.2V117z"/>
			<path class="st2" d="M280,122.2c-0.5,0.7-1.4,1.1-2.3,1.1c-1.4,0-2.7-1-2.7-2.9c0-1.9,1.3-2.8,2.7-2.8c0.9,0,1.8,0.3,2.3,1v-1.3
				c0-1-0.6-1.7-1.7-1.7c-0.8,0-1.5,0.3-2.2,1l-0.7-1.3c0.9-0.9,2.1-1.3,3.2-1.3c1.8,0,3.1,0.8,3.1,3v5.9H280V122.2z M280,119.8
				c-0.3-0.6-1-1-1.6-1c-0.9,0-1.5,0.7-1.5,1.6c0,0.9,0.6,1.6,1.5,1.6c0.6,0,1.3-0.4,1.6-1V119.8z"/>
			<path class="st2" d="M288.7,117.2c0-1-0.5-1.4-1.2-1.4c-0.8,0-1.4,0.6-1.8,1.2v6.1h-1.8v-8.7h1.8v1.2c0.5-0.7,1.4-1.4,2.5-1.4
				c1.6,0,2.3,0.9,2.3,2.4v6.5h-1.8V117.2z"/>
			<path class="st2" d="M292.4,112.2c0-0.6,0.5-1.1,1.1-1.1c0.6,0,1.1,0.5,1.1,1.1c0,0.6-0.5,1.1-1.1,1.1
				C292.9,113.3,292.4,112.8,292.4,112.2z M292.6,114.4h1.8v8.7h-1.8V114.4z"/>
			<path class="st2" d="M296.7,120.8c0.5,0.6,1.4,1.1,2.3,1.1c0.9,0,1.4-0.4,1.4-1.1c0-0.7-0.8-1-1.6-1.3c-1.2-0.4-2.7-1-2.7-2.8
				c0-1.3,1.1-2.5,3-2.5c1.2,0,2.2,0.4,2.9,1.1l-0.8,1.2c-0.4-0.5-1.2-0.9-2.1-0.9c-0.8,0-1.3,0.4-1.3,1c0,0.6,0.7,0.9,1.6,1.2
				c1.2,0.4,2.7,1,2.7,2.9c0,1.5-1.2,2.6-3.1,2.6c-1.3,0-2.4-0.4-3.2-1.2L296.7,120.8z"/>
			<path class="st2" d="M308.2,122.2c-0.5,0.7-1.4,1.1-2.3,1.1c-1.4,0-2.7-1-2.7-2.9c0-1.9,1.3-2.8,2.7-2.8c0.9,0,1.8,0.3,2.3,1
				v-1.3c0-1-0.6-1.7-1.7-1.7c-0.8,0-1.5,0.3-2.2,1l-0.7-1.3c0.9-0.9,2.1-1.3,3.2-1.3c1.8,0,3.1,0.8,3.1,3v5.9h-1.8V122.2z
				 M308.2,119.8c-0.3-0.6-1-1-1.6-1c-0.9,0-1.5,0.7-1.5,1.6c0,0.9,0.6,1.6,1.5,1.6c0.6,0,1.3-0.4,1.6-1V119.8z"/>
			<path class="st2" d="M312.5,121.2V116h-1.1v-1.6h1.1v-2.4h1.8v2.4h1.4v1.6h-1.4v4.8c0,0.6,0.2,1,0.7,1c0.3,0,0.6-0.1,0.7-0.3
				l0.4,1.3c-0.3,0.3-0.8,0.5-1.6,0.5C313.1,123.3,312.5,122.6,312.5,121.2z"/>
			<path class="st2" d="M317,112.2c0-0.6,0.5-1.1,1.1-1.1c0.6,0,1.1,0.5,1.1,1.1c0,0.6-0.5,1.1-1.1,1.1
				C317.5,113.3,317,112.8,317,112.2z M317.2,114.4h1.8v8.7h-1.8V114.4z"/>
			<path class="st2" d="M320.7,118.8c0-2.4,1.3-4.5,3.8-4.5c2.5,0,3.8,2.1,3.8,4.5s-1.3,4.6-3.8,4.6
				C322,123.3,320.7,121.2,320.7,118.8z M326.4,118.8c0-1.6-0.6-3-1.9-3c-1.3,0-1.9,1.4-1.9,3s0.6,3,1.9,3
				C325.8,121.8,326.4,120.3,326.4,118.8z"/>
			<path class="st2" d="M334.7,117.2c0-1-0.5-1.4-1.2-1.4c-0.8,0-1.4,0.6-1.8,1.2v6.1h-1.8v-8.7h1.8v1.2c0.5-0.7,1.4-1.4,2.5-1.4
				c1.6,0,2.3,0.9,2.3,2.4v6.5h-1.8V117.2z"/>
			<path class="st2" d="M338.7,120.8c0.5,0.6,1.4,1.1,2.3,1.1c0.9,0,1.4-0.4,1.4-1.1c0-0.7-0.8-1-1.6-1.3c-1.2-0.4-2.7-1-2.7-2.8
				c0-1.3,1.1-2.5,3-2.5c1.2,0,2.2,0.4,2.9,1.1l-0.8,1.2c-0.4-0.5-1.2-0.9-2.1-0.9c-0.8,0-1.3,0.4-1.3,1c0,0.6,0.7,0.9,1.6,1.2
				c1.2,0.4,2.7,1,2.7,2.9c0,1.5-1.2,2.6-3.1,2.6c-1.3,0-2.4-0.4-3.2-1.2L338.7,120.8z"/>
			<path class="st2" d="M345.3,118h3.8v1.5h-3.8V118z"/>
			<path class="st2" d="M350.6,124.8c0.6-0.4,1.1-1.1,1.3-1.7c-0.1,0-0.2,0-0.3,0c-0.6,0-1-0.5-1-1.1c0-0.6,0.5-1.2,1.2-1.2
				c0.7,0,1.3,0.6,1.3,1.6c0,1.2-0.7,2.3-1.7,3L350.6,124.8z"/>
			<path class="st2" d="M357.8,114.4h1.9l1.9,6.5l1.9-6.5h1.9l-2.9,8.7h-1.9L357.8,114.4z"/>
			<path class="st2" d="M369.8,114.2c2.4,0,3.6,2,3.6,4.6v0.5h-5.5c0.1,1.4,0.9,2.5,2.3,2.5c0.7,0,1.5-0.3,2-0.9l0.9,1.1
				c-0.7,0.8-1.8,1.3-3,1.3c-2.4,0-3.9-1.9-3.9-4.6C366.1,116.3,367.5,114.2,369.8,114.2z M367.9,118.1h3.8c0-1.1-0.5-2.4-1.9-2.4
				C368.4,115.7,367.9,117,367.9,118.1z"/>
			<path class="st2" d="M375,114.4h1.8v1.3c0.5-0.8,1.4-1.5,2.4-1.5v1.8c-0.1,0-0.3-0.1-0.5-0.1c-0.7,0-1.6,0.6-1.9,1.2v5.9H375
				V114.4z"/>
			<path class="st2" d="M383.4,119.5l-1,1.4v2.2h-1.8v-12h1.8v7.6l3.1-4.3h2.1l-2.9,3.9l2.9,4.8h-2.1L383.4,119.5z"/>
			<path class="st2" d="M388.9,120.8c0.5,0.6,1.4,1.1,2.3,1.1c0.9,0,1.4-0.4,1.4-1.1c0-0.7-0.8-1-1.6-1.3c-1.2-0.4-2.7-1-2.7-2.8
				c0-1.3,1.1-2.5,3-2.5c1.2,0,2.2,0.4,2.9,1.1l-0.8,1.2c-0.4-0.5-1.2-0.9-2.1-0.9c-0.8,0-1.3,0.4-1.3,1c0,0.6,0.7,0.9,1.6,1.2
				c1.2,0.4,2.7,1,2.7,2.9c0,1.5-1.2,2.6-3.1,2.6c-1.3,0-2.4-0.4-3.2-1.2L388.9,120.8z"/>
			<path class="st2" d="M400.4,122.2c-0.5,0.7-1.4,1.1-2.3,1.1c-1.4,0-2.7-1-2.7-2.9c0-1.9,1.3-2.8,2.7-2.8c0.9,0,1.8,0.3,2.3,1
				v-1.3c0-1-0.6-1.7-1.7-1.7c-0.8,0-1.5,0.3-2.2,1l-0.7-1.3c0.9-0.9,2.1-1.3,3.2-1.3c1.8,0,3.1,0.8,3.1,3v5.9h-1.8V122.2z
				 M400.4,119.8c-0.3-0.6-1-1-1.6-1c-0.9,0-1.5,0.7-1.5,1.6c0,0.9,0.6,1.6,1.5,1.6c0.6,0,1.3-0.4,1.6-1V119.8z"/>
			<path class="st2" d="M413.4,117.1c0-0.8-0.3-1.3-1.1-1.3c-0.7,0-1.4,0.6-1.7,1.2v6.1h-1.8v-6c0-0.8-0.3-1.3-1.1-1.3
				c-0.7,0-1.3,0.6-1.7,1.2v6.1h-1.8v-8.7h1.8v1.2c0.3-0.6,1.3-1.4,2.4-1.4c1.1,0,1.8,0.6,2,1.5c0.4-0.8,1.4-1.5,2.5-1.5
				c1.3,0,2.1,0.7,2.1,2.3v6.6h-1.8V117.1z"/>
			<path class="st2" d="M422.1,117.2c0-1-0.5-1.4-1.3-1.4c-0.8,0-1.4,0.6-1.8,1.2v6.1h-1.8v-12h1.8v4.5c0.5-0.7,1.5-1.4,2.5-1.4
				c1.5,0,2.3,0.8,2.3,2.3v6.6h-1.8V117.2z"/>
			<path class="st2" d="M429.3,114.2c2.4,0,3.6,2,3.6,4.6v0.5h-5.5c0.1,1.4,0.9,2.5,2.3,2.5c0.7,0,1.5-0.3,2-0.9l0.9,1.1
				c-0.7,0.8-1.8,1.3-3,1.3c-2.4,0-3.9-1.9-3.9-4.6C425.6,116.3,427,114.2,429.3,114.2z M427.4,118.1h3.8c0-1.1-0.5-2.4-1.9-2.4
				C427.9,115.7,427.4,117,427.4,118.1z"/>
			<path class="st2" d="M434.8,121.2V116h-1.1v-1.6h1.1v-2.4h1.8v2.4h1.4v1.6h-1.4v4.8c0,0.6,0.2,1,0.7,1c0.3,0,0.6-0.1,0.7-0.3
				l0.4,1.3c-0.3,0.3-0.8,0.5-1.6,0.5C435.5,123.3,434.8,122.6,434.8,121.2z"/>
			<path class="st2" d="M439.7,120.8c0.5,0.6,1.4,1.1,2.3,1.1c0.9,0,1.4-0.4,1.4-1.1c0-0.7-0.8-1-1.6-1.3c-1.2-0.4-2.7-1-2.7-2.8
				c0-1.3,1.1-2.5,3-2.5c1.2,0,2.2,0.4,2.9,1.1l-0.8,1.2c-0.4-0.5-1.2-0.9-2.1-0.9c-0.8,0-1.3,0.4-1.3,1c0,0.6,0.7,0.9,1.6,1.2
				c1.2,0.4,2.7,1,2.7,2.9c0,1.5-1.2,2.6-3.1,2.6c-1.3,0-2.4-0.4-3.2-1.2L439.7,120.8z"/>
			<path class="st2" d="M446.3,118h3.8v1.5h-3.8V118z"/>
			<path class="st2" d="M455,118.8c0-2.4,1.3-4.5,3.8-4.5c2.5,0,3.8,2.1,3.8,4.5s-1.3,4.6-3.8,4.6C456.3,123.3,455,121.2,455,118.8z
				 M460.7,118.8c0-1.6-0.6-3-1.9-3c-1.3,0-1.9,1.4-1.9,3s0.6,3,1.9,3C460.1,121.8,460.7,120.3,460.7,118.8z"/>
			<path class="st2" d="M467.6,114.2c1.3,0,2.1,0.5,2.6,1.2l-0.9,1.2c-0.4-0.6-0.9-0.8-1.5-0.8c-1.4,0-2.1,1.3-2.1,3s0.8,3,2.1,3
				c0.6,0,1.1-0.3,1.5-0.8l0.9,1.2c-0.5,0.6-1.3,1.2-2.6,1.2c-2.3,0-3.8-1.9-3.8-4.6S465.2,114.2,467.6,114.2z"/>
			<path class="st2" d="M476.5,117.2c0-1-0.5-1.4-1.3-1.4c-0.8,0-1.4,0.6-1.8,1.2v6.1h-1.8v-12h1.8v4.5c0.5-0.7,1.5-1.4,2.5-1.4
				c1.5,0,2.3,0.8,2.3,2.3v6.6h-1.8V117.2z"/>
			<path class="st2" d="M488.6,122.2c-0.5,0.7-1.4,1.1-2.3,1.1c-1.4,0-2.7-1-2.7-2.9c0-1.9,1.3-2.8,2.7-2.8c0.9,0,1.8,0.3,2.3,1
				v-1.3c0-1-0.6-1.7-1.7-1.7c-0.8,0-1.5,0.3-2.2,1l-0.7-1.3c0.9-0.9,2.1-1.3,3.2-1.3c1.8,0,3.1,0.8,3.1,3v5.9h-1.8V122.2z
				 M488.6,119.8c-0.3-0.6-1-1-1.6-1c-0.9,0-1.5,0.7-1.5,1.6c0,0.9,0.6,1.6,1.5,1.6c0.6,0,1.3-0.4,1.6-1V119.8z"/>
			<path class="st2" d="M492.9,116h-1.1v-1.6h1.1v-0.8c0-1.7,1-2.7,2.4-2.7c0.5,0,1,0.1,1.3,0.3l-0.4,1.4c-0.2-0.1-0.4-0.1-0.6-0.1
				c-0.6,0-1,0.4-1,1.1v0.8h1.4v1.6h-1.4v7.1h-1.8V116z M497.8,116h-1.1v-1.6h1.1v-0.8c0-1.7,1-2.7,2.4-2.7c0.5,0,1,0.1,1.3,0.3
				l-0.4,1.4c-0.2-0.1-0.4-0.1-0.6-0.1c-0.6,0-1,0.4-1,1.1v0.8h1.5v1.6h-1.5v7.1h-1.8V116z"/>
			<path class="st2" d="M506.9,122.2c-0.5,0.7-1.4,1.1-2.3,1.1c-1.4,0-2.7-1-2.7-2.9c0-1.9,1.3-2.8,2.7-2.8c0.9,0,1.8,0.3,2.3,1
				v-1.3c0-1-0.6-1.7-1.7-1.7c-0.8,0-1.5,0.3-2.2,1l-0.7-1.3c0.9-0.9,2.1-1.3,3.2-1.3c1.8,0,3.1,0.8,3.1,3v5.9h-1.8V122.2z
				 M502.9,112.2c0-0.6,0.4-1,1-1s1,0.4,1,1s-0.4,1-1,1S502.9,112.8,502.9,112.2z M506.9,119.8c-0.3-0.6-1-1-1.6-1
				c-0.9,0-1.5,0.7-1.5,1.6c0,0.9,0.6,1.6,1.5,1.6c0.6,0,1.3-0.4,1.6-1V119.8z M506.1,112.2c0-0.6,0.5-1,1-1c0.6,0,1,0.4,1,1
				s-0.5,1-1,1C506.6,113.2,506.1,112.8,506.1,112.2z"/>
			<path class="st2" d="M510.7,114.4h1.8v1.3c0.5-0.8,1.4-1.5,2.4-1.5v1.8c-0.1,0-0.3-0.1-0.5-0.1c-0.7,0-1.6,0.6-1.9,1.2v5.9h-1.8
				V114.4z"/>
			<path class="st2" d="M516.4,120.8c0.5,0.6,1.4,1.1,2.3,1.1c0.9,0,1.4-0.4,1.4-1.1c0-0.7-0.8-1-1.6-1.3c-1.2-0.4-2.7-1-2.7-2.8
				c0-1.3,1.1-2.5,3-2.5c1.2,0,2.2,0.4,2.9,1.1l-0.8,1.2c-0.4-0.5-1.2-0.9-2.1-0.9c-0.8,0-1.3,0.4-1.3,1c0,0.6,0.7,0.9,1.6,1.2
				c1.2,0.4,2.7,1,2.7,2.9c0,1.5-1.2,2.6-3.1,2.6c-1.3,0-2.4-0.4-3.2-1.2L516.4,120.8z"/>
			<path class="st2" d="M528.3,122c-0.5,0.7-1.4,1.4-2.5,1.4c-1.5,0-2.3-0.8-2.3-2.3v-6.6h1.8v5.9c0,1,0.5,1.4,1.2,1.4
				c0.8,0,1.4-0.6,1.8-1.2v-6.1h1.8v8.7h-1.8V122z"/>
			<path class="st2" d="M532.5,121.2V116h-1.1v-1.6h1.1v-2.4h1.8v2.4h1.4v1.6h-1.4v4.8c0,0.6,0.2,1,0.7,1c0.3,0,0.6-0.1,0.7-0.3
				l0.4,1.3c-0.3,0.3-0.8,0.5-1.6,0.5C533.2,123.3,532.5,122.6,532.5,121.2z"/>
			<path class="st2" d="M536.2,114.4h1.9l1.9,6.5l1.9-6.5h1.9l-2.9,8.7h-1.9L536.2,114.4z"/>
			<path class="st2" d="M548.3,114.2c2.4,0,3.6,2,3.6,4.6v0.5h-5.5c0.1,1.4,0.9,2.5,2.3,2.5c0.7,0,1.5-0.3,2-0.9l0.9,1.1
				c-0.7,0.8-1.8,1.3-3,1.3c-2.4,0-3.9-1.9-3.9-4.6C544.6,116.3,546,114.2,548.3,114.2z M546.4,118.1h3.8c0-1.1-0.5-2.4-1.9-2.4
				C546.9,115.7,546.4,117,546.4,118.1z"/>
			<path class="st2" d="M556.9,114.2c1.3,0,2.1,0.5,2.6,1.2l-0.9,1.2c-0.4-0.6-0.9-0.8-1.5-0.8c-1.4,0-2.1,1.3-2.1,3s0.8,3,2.1,3
				c0.6,0,1.1-0.3,1.5-0.8l0.9,1.2c-0.5,0.6-1.3,1.2-2.6,1.2c-2.3,0-3.8-1.9-3.8-4.6S554.6,114.2,556.9,114.2z"/>
			<path class="st2" d="M563.8,119.5l-1,1.4v2.2H561v-12h1.8v7.6l3.1-4.3h2.1l-2.9,3.9l2.9,4.8h-2.1L563.8,119.5z"/>
			<path class="st2" d="M569.1,111.1h1.8v12h-1.8V111.1z"/>
			<path class="st2" d="M572.8,112.2c0-0.6,0.5-1.1,1.1-1.1c0.6,0,1.1,0.5,1.1,1.1c0,0.6-0.5,1.1-1.1,1.1
				C573.3,113.3,572.8,112.8,572.8,112.2z M573.1,114.4h1.8v8.7h-1.8V114.4z"/>
			<path class="st2" d="M581.8,117.2c0-1-0.5-1.4-1.2-1.4c-0.8,0-1.4,0.6-1.8,1.2v6.1H577v-8.7h1.8v1.2c0.5-0.7,1.4-1.4,2.5-1.4
				c1.6,0,2.3,0.9,2.3,2.4v6.5h-1.8V117.2z"/>
			<path class="st2" d="M586.3,124.2c0.6,0.6,1.3,1,2.2,1c1.1,0,2-0.6,2-2.2v-1.2c-0.5,0.9-1.4,1.4-2.2,1.4c-1.9,0-3.2-1.7-3.2-4.5
				c0-2.7,1.2-4.5,3.2-4.5c0.8,0,1.7,0.4,2.2,1.4v-1.2h1.8v8.4c0,3-1.9,3.8-3.7,3.8c-1.2,0-2.2-0.3-3.1-1.1L586.3,124.2z M590.6,117
				c-0.3-0.6-1-1.2-1.7-1.2c-1.2,0-1.8,1.2-1.8,2.9c0,1.7,0.6,2.9,1.8,2.9c0.7,0,1.4-0.5,1.7-1.2V117z"/>
		</g>
	</g>
	<g>
		<g>
			<path class="st2" d="M68.4,202.8l-2.9,8.3h-0.8l-2.9-8.3v8.3h-2v-12h2.7l2.6,7.3l2.6-7.3h2.7v12h-2V202.8z"/>
			<path class="st2" d="M72.1,206.7c0-2.4,1.3-4.5,3.8-4.5c2.5,0,3.8,2.1,3.8,4.5c0,2.4-1.3,4.6-3.8,4.6
				C73.4,211.2,72.1,209.1,72.1,206.7z M77.8,206.7c0-1.6-0.6-3-1.9-3c-1.3,0-1.9,1.4-1.9,3s0.6,3,1.9,3
				C77.2,209.7,77.8,208.2,77.8,206.7z"/>
			<path class="st2" d="M86.3,209.9c-0.5,0.9-1.4,1.4-2.2,1.4c-1.9,0-3.2-1.8-3.2-4.5c0-2.7,1.2-4.6,3.2-4.6c0.8,0,1.7,0.4,2.2,1.4
				V199h1.8v12h-1.8V209.9z M86.3,204.9c-0.3-0.6-1-1.2-1.7-1.2c-1.2,0-1.8,1.3-1.8,3c0,1.7,0.6,3,1.8,3c0.7,0,1.4-0.5,1.7-1.2
				V204.9z"/>
			<path class="st2" d="M95,209.9c-0.5,0.7-1.4,1.4-2.5,1.4c-1.5,0-2.3-0.8-2.3-2.3v-6.6H92v5.9c0,1,0.5,1.4,1.2,1.4
				c0.8,0,1.4-0.6,1.8-1.2v-6.1h1.8v8.7H95V209.9z"/>
			<path class="st2" d="M98.9,199h1.8v12h-1.8V199z"/>
			<path class="st2" d="M25.3,222.5h6.6v1.7h-4.6v3.2h4.4v1.8h-4.4v5.2h-2V222.5z"/>
			<path class="st2" d="M33.1,230.1c0-2.4,1.3-4.5,3.8-4.5c2.5,0,3.8,2.1,3.8,4.5c0,2.4-1.3,4.6-3.8,4.6
				C34.4,234.7,33.1,232.5,33.1,230.1z M34.2,223.5c0-0.6,0.4-1,1-1s1,0.4,1,1s-0.4,1-1,1S34.2,224.1,34.2,223.5z M38.8,230.1
				c0-1.6-0.6-3-1.9-3c-1.3,0-1.9,1.4-1.9,3s0.6,3,1.9,3C38.2,233.1,38.8,231.7,38.8,230.1z M37.5,223.5c0-0.6,0.5-1,1-1
				c0.6,0,1,0.4,1,1s-0.5,1-1,1C37.9,224.5,37.5,224.1,37.5,223.5z"/>
			<path class="st2" d="M42.3,225.8h1.8v1.3c0.5-0.8,1.4-1.5,2.4-1.5v1.8c-0.1,0-0.3-0.1-0.5-0.1c-0.7,0-1.6,0.6-1.9,1.2v5.9h-1.8
				V225.8z"/>
			<path class="st2" d="M51.1,225.6c2.4,0,3.6,2,3.6,4.6v0.5h-5.5c0.1,1.4,0.9,2.5,2.3,2.5c0.7,0,1.5-0.3,2-0.9l0.9,1.1
				c-0.7,0.8-1.8,1.3-3,1.3c-2.4,0-3.9-1.9-3.9-4.6C47.4,227.6,48.8,225.6,51.1,225.6z M49.2,229.4H53c0-1.1-0.5-2.4-1.9-2.4
				C49.8,227,49.3,228.4,49.2,229.4z"/>
			<path class="st2" d="M56.7,232.5v-5.2h-1.1v-1.6h1.1v-2.4h1.8v2.4h1.4v1.6h-1.4v4.8c0,0.6,0.2,1,0.7,1c0.3,0,0.6-0.1,0.7-0.3
				l0.4,1.3c-0.3,0.3-0.8,0.5-1.6,0.5C57.3,234.7,56.7,233.9,56.7,232.5z"/>
			<path class="st2" d="M65.9,233.6c-0.5,0.7-1.4,1.1-2.3,1.1c-1.4,0-2.7-1-2.7-2.9c0-1.9,1.3-2.8,2.7-2.8c0.9,0,1.8,0.3,2.3,1v-1.3
				c0-1-0.6-1.7-1.7-1.7c-0.8,0-1.5,0.3-2.2,1l-0.7-1.3c0.9-0.9,2.1-1.3,3.2-1.3c1.8,0,3.1,0.8,3.1,3v5.9h-1.8V233.6z M65.9,231.2
				c-0.3-0.6-1-1-1.6-1c-0.9,0-1.5,0.7-1.5,1.6c0,0.9,0.6,1.6,1.5,1.6c0.6,0,1.3-0.4,1.6-1V231.2z"/>
			<path class="st2" d="M70.5,235.5c0.6,0.6,1.3,1,2.2,1c1.1,0,2-0.6,2-2.2V233c-0.5,0.9-1.4,1.4-2.2,1.4c-1.9,0-3.2-1.7-3.2-4.5
				c0-2.7,1.2-4.5,3.2-4.5c0.8,0,1.7,0.4,2.2,1.4v-1.2h1.8v8.4c0,3-1.9,3.8-3.7,3.8c-1.2,0-2.2-0.3-3.1-1.1L70.5,235.5z M74.8,228.3
				c-0.3-0.6-1-1.2-1.7-1.2c-1.2,0-1.8,1.2-1.8,2.9c0,1.7,0.6,2.9,1.8,2.9c0.7,0,1.4-0.5,1.7-1.2V228.3z"/>
			<path class="st2" d="M78.8,232.2c0.5,0.6,1.4,1.1,2.3,1.1c0.9,0,1.4-0.4,1.4-1.1c0-0.7-0.8-1-1.6-1.3c-1.2-0.4-2.7-1-2.7-2.8
				c0-1.3,1.1-2.5,3-2.5c1.2,0,2.2,0.4,2.9,1.1l-0.8,1.2c-0.4-0.5-1.2-0.9-2.1-0.9c-0.8,0-1.3,0.4-1.3,1c0,0.6,0.7,0.9,1.6,1.2
				c1.2,0.4,2.7,1,2.7,2.9c0,1.5-1.2,2.6-3.1,2.6c-1.3,0-2.4-0.4-3.2-1.2L78.8,232.2z"/>
			<path class="st2" d="M85.9,222.5h1.8v12h-1.8V222.5z"/>
			<path class="st2" d="M93.1,225.6c2.4,0,3.6,2,3.6,4.6v0.5h-5.5c0.1,1.4,0.9,2.5,2.3,2.5c0.7,0,1.5-0.3,2-0.9l0.9,1.1
				c-0.7,0.8-1.8,1.3-3,1.3c-2.4,0-3.9-1.9-3.9-4.6C89.3,227.6,90.7,225.6,93.1,225.6z M91.1,229.4h3.8c0-1.1-0.5-2.4-1.9-2.4
				C91.7,227,91.2,228.4,91.1,229.4z"/>
			<path class="st2" d="M103.2,233.3c-0.5,0.9-1.4,1.4-2.2,1.4c-1.9,0-3.2-1.8-3.2-4.5c0-2.7,1.2-4.6,3.2-4.6c0.8,0,1.7,0.4,2.2,1.4
				v-4.5h1.8v12h-1.8V233.3z M103.2,228.3c-0.3-0.6-1-1.2-1.7-1.2c-1.2,0-1.8,1.3-1.8,3c0,1.7,0.6,3,1.8,3c0.7,0,1.4-0.5,1.7-1.2
				V228.3z"/>
			<path class="st2" d="M112,228.5c0-1-0.5-1.4-1.2-1.4c-0.8,0-1.4,0.6-1.8,1.2v6.1h-1.8v-8.7h1.8v1.2c0.5-0.7,1.4-1.4,2.5-1.4
				c1.6,0,2.3,0.9,2.3,2.4v6.5H112V228.5z"/>
			<path class="st2" d="M115.6,223.6c0-0.6,0.5-1.1,1.1-1.1c0.6,0,1.1,0.5,1.1,1.1c0,0.6-0.5,1.1-1.1,1.1
				C116.2,224.7,115.6,224.2,115.6,223.6z M115.9,225.8h1.8v8.7h-1.8V225.8z"/>
			<path class="st2" d="M124.6,228.5c0-1-0.5-1.4-1.2-1.4c-0.8,0-1.4,0.6-1.8,1.2v6.1h-1.8v-8.7h1.8v1.2c0.5-0.7,1.4-1.4,2.5-1.4
				c1.6,0,2.3,0.9,2.3,2.4v6.5h-1.8V228.5z"/>
			<path class="st2" d="M129.2,235.5c0.6,0.6,1.3,1,2.2,1c1.1,0,2-0.6,2-2.2V233c-0.5,0.9-1.4,1.4-2.2,1.4c-1.9,0-3.2-1.7-3.2-4.5
				c0-2.7,1.2-4.5,3.2-4.5c0.8,0,1.7,0.4,2.2,1.4v-1.2h1.8v8.4c0,3-1.9,3.8-3.7,3.8c-1.2,0-2.2-0.3-3.1-1.1L129.2,235.5z
				 M133.5,228.3c-0.3-0.6-1-1.2-1.7-1.2c-1.2,0-1.8,1.2-1.8,2.9c0,1.7,0.6,2.9,1.8,2.9c0.7,0,1.4-0.5,1.7-1.2V228.3z"/>
		</g>
	</g>
	<g>
		<g>
			<path class="st2" d="M243,202.8l-2.9,8.3h-0.8l-2.9-8.3v8.3h-2v-12h2.7l2.6,7.3l2.6-7.3h2.7v12h-2V202.8z"/>
			<path class="st2" d="M246.7,206.7c0-2.4,1.3-4.5,3.8-4.5c2.5,0,3.8,2.1,3.8,4.5c0,2.4-1.3,4.6-3.8,4.6
				C248,211.2,246.7,209.1,246.7,206.7z M252.4,206.7c0-1.6-0.6-3-1.9-3c-1.3,0-1.9,1.4-1.9,3s0.6,3,1.9,3
				C251.8,209.7,252.4,208.2,252.4,206.7z"/>
			<path class="st2" d="M260.9,209.9c-0.5,0.9-1.4,1.4-2.2,1.4c-1.9,0-3.2-1.8-3.2-4.5c0-2.7,1.2-4.6,3.2-4.6c0.8,0,1.7,0.4,2.2,1.4
				V199h1.8v12h-1.8V209.9z M260.9,204.9c-0.3-0.6-1-1.2-1.7-1.2c-1.2,0-1.8,1.3-1.8,3c0,1.7,0.6,3,1.8,3c0.7,0,1.4-0.5,1.7-1.2
				V204.9z"/>
			<path class="st2" d="M269.6,209.9c-0.5,0.7-1.4,1.4-2.5,1.4c-1.5,0-2.3-0.8-2.3-2.3v-6.6h1.8v5.9c0,1,0.5,1.4,1.2,1.4
				c0.8,0,1.4-0.6,1.8-1.2v-6.1h1.8v8.7h-1.8V209.9z"/>
			<path class="st2" d="M273.5,199h1.8v12h-1.8V199z"/>
			<path class="st2" d="M232.5,228.5c0-3.6,1.9-6.2,4.9-6.2c2.1,0,3.2,1.3,3.8,2.6l-1.7,0.7c-0.4-1-1.1-1.6-2.1-1.6
				c-1.8,0-2.9,1.9-2.9,4.4c0,2.6,1.1,4.4,2.9,4.4c1,0,1.8-0.8,2.2-1.8l1.7,0.7c-0.6,1.4-1.7,2.8-3.8,2.8
				C234.4,234.7,232.5,232.1,232.5,228.5z"/>
			<path class="st2" d="M247.5,228.5c0-1-0.5-1.4-1.3-1.4c-0.8,0-1.4,0.6-1.8,1.2v6.1h-1.8v-12h1.8v4.5c0.5-0.7,1.5-1.4,2.5-1.4
				c1.5,0,2.3,0.8,2.3,2.3v6.6h-1.8V228.5z"/>
			<path class="st2" d="M254.7,225.6c2.4,0,3.6,2,3.6,4.6v0.5h-5.5c0.1,1.4,0.9,2.5,2.3,2.5c0.7,0,1.5-0.3,2-0.9l0.9,1.1
				c-0.7,0.8-1.8,1.3-3,1.3c-2.4,0-3.9-1.9-3.9-4.6C251,227.6,252.4,225.6,254.7,225.6z M252.8,229.4h3.8c0-1.1-0.5-2.4-1.9-2.4
				C253.3,227,252.8,228.4,252.8,229.4z"/>
			<path class="st2" d="M260.3,227.3h-1.1v-1.6h1.1V225c0-1.7,1-2.7,2.4-2.7c0.5,0,1,0.1,1.3,0.3l-0.4,1.4c-0.2-0.1-0.4-0.1-0.6-0.1
				c-0.6,0-1,0.4-1,1.2v0.8h1.4v1.6h-1.4v7.1h-1.8V227.3z"/>
			<path class="st2" d="M268.1,225.6c2.4,0,3.6,2,3.6,4.6v0.5h-5.5c0.1,1.4,0.9,2.5,2.3,2.5c0.7,0,1.5-0.3,2-0.9l0.9,1.1
				c-0.7,0.8-1.8,1.3-3,1.3c-2.4,0-3.9-1.9-3.9-4.6C264.4,227.6,265.8,225.6,268.1,225.6z M266.2,229.4h3.8c0-1.1-0.5-2.4-1.9-2.4
				C266.8,227,266.3,228.4,266.2,229.4z"/>
			<path class="st2" d="M273.4,225.8h1.8v1.3c0.5-0.8,1.4-1.5,2.4-1.5v1.8c-0.1,0-0.3-0.1-0.5-0.1c-0.7,0-1.6,0.6-1.9,1.2v5.9h-1.8
				V225.8z"/>
		</g>
	</g>
	<g>
		<g>
			<path class="st2" d="M418,202.8l-2.9,8.3h-0.8l-2.9-8.3v8.3h-2v-12h2.7l2.6,7.3l2.6-7.3h2.7v12h-2V202.8z"/>
			<path class="st2" d="M421.7,206.7c0-2.4,1.3-4.5,3.8-4.5c2.5,0,3.8,2.1,3.8,4.5c0,2.4-1.3,4.6-3.8,4.6
				C423,211.2,421.7,209.1,421.7,206.7z M427.4,206.7c0-1.6-0.6-3-1.9-3c-1.3,0-1.9,1.4-1.9,3s0.6,3,1.9,3
				C426.8,209.7,427.4,208.2,427.4,206.7z"/>
			<path class="st2" d="M435.9,209.9c-0.5,0.9-1.4,1.4-2.2,1.4c-1.9,0-3.2-1.8-3.2-4.5c0-2.7,1.2-4.6,3.2-4.6c0.8,0,1.7,0.4,2.2,1.4
				V199h1.8v12h-1.8V209.9z M435.9,204.9c-0.3-0.6-1-1.2-1.7-1.2c-1.2,0-1.8,1.3-1.8,3c0,1.7,0.6,3,1.8,3c0.7,0,1.4-0.5,1.7-1.2
				V204.9z"/>
			<path class="st2" d="M444.6,209.9c-0.5,0.7-1.4,1.4-2.5,1.4c-1.5,0-2.3-0.8-2.3-2.3v-6.6h1.8v5.9c0,1,0.5,1.4,1.2,1.4
				c0.8,0,1.4-0.6,1.8-1.2v-6.1h1.8v8.7h-1.8V209.9z"/>
			<path class="st2" d="M448.5,199h1.8v12h-1.8V199z"/>
			<path class="st2" d="M367.5,228.1h-4.2v5h-1.9v-11.4h1.9v4.7h4.2v-4.7h1.9v11.4h-1.9V228.1z"/>
			<path class="st2" d="M374.9,228.8h-1.4v4.3h-1.9v-11.4h3.9c2,0,3.3,1.4,3.3,3.5c0,2-1.1,3-2.1,3.3l2.2,4.6h-2.1L374.9,228.8z
				 M375.3,223.3h-1.8v3.8h1.8c1,0,1.7-0.8,1.7-1.9S376.3,223.3,375.3,223.3z"/>
			<path class="st2" d="M390.3,233.1c-0.2-0.3-0.5-0.6-0.8-0.9c-0.7,0.7-1.6,1.1-2.7,1.1c-1.7,0-3.1-1.1-3.1-3.2
				c0-1.7,1-2.6,2.1-3.4c-0.4-0.9-0.7-1.7-0.7-2.5c0-1.6,1.1-2.8,2.6-2.8c1.3,0,2.4,0.9,2.4,2.3c0,1.7-1.2,2.5-2.3,3.2
				c0.3,0.5,0.6,1,0.9,1.4c0.3,0.4,0.6,0.9,0.9,1.3c0.4-0.8,0.7-1.6,0.8-2.3l1.4,0.6c-0.3,1-0.7,2-1.3,2.9c0.5,0.7,1.1,1.4,1.8,2.2
				H390.3z M388.7,231.1c-0.5-0.6-0.9-1.2-1.2-1.6c-0.3-0.5-0.7-1-1-1.5c-0.6,0.5-1,1.1-1,2c0,1.2,0.7,1.9,1.5,1.9
				C387.7,231.9,388.2,231.6,388.7,231.1z M387.2,225.9c0.8-0.5,1.5-1.1,1.5-2c0-0.8-0.4-1.1-0.9-1.1c-0.6,0-1,0.5-1,1.5
				C386.8,224.8,387,225.3,387.2,225.9z"/>
			<path class="st2" d="M399.9,228.4l-0.9,1.3v3.4h-1.9v-11.4h1.9v5.5l3.5-5.5h2.2l-3.7,5.4l4,6h-2.2L399.9,228.4z"/>
			<path class="st2" d="M405.3,229c0-2.3,1.2-4.3,3.6-4.3c2.3,0,3.6,2,3.6,4.3c0,2.3-1.2,4.4-3.6,4.4
				C406.6,233.3,405.3,231.3,405.3,229z M410.7,229c0-1.5-0.6-2.8-1.8-2.8c-1.2,0-1.8,1.3-1.8,2.8s0.6,2.8,1.8,2.8
				C410.2,231.8,410.7,230.4,410.7,229z"/>
			<path class="st2" d="M422.7,227.3c0-0.8-0.3-1.2-1-1.2c-0.7,0-1.3,0.6-1.6,1.1v5.8h-1.7v-5.8c0-0.8-0.3-1.2-1-1.2
				c-0.7,0-1.3,0.6-1.6,1.1v5.8h-1.7v-8.3h1.7v1.1c0.3-0.6,1.3-1.3,2.3-1.3c1,0,1.7,0.5,1.9,1.5c0.4-0.7,1.4-1.5,2.4-1.5
				c1.3,0,2,0.7,2,2.2v6.3h-1.7V227.3z"/>
			<path class="st2" d="M435.1,227.3c0-0.8-0.3-1.2-1-1.2c-0.7,0-1.3,0.6-1.6,1.1v5.8h-1.7v-5.8c0-0.8-0.3-1.2-1-1.2
				c-0.7,0-1.3,0.6-1.6,1.1v5.8h-1.7v-8.3h1.7v1.1c0.3-0.6,1.3-1.3,2.3-1.3c1,0,1.7,0.5,1.9,1.5c0.4-0.7,1.4-1.5,2.4-1.5
				c1.3,0,2,0.7,2,2.2v6.3h-1.7V227.3z"/>
			<path class="st2" d="M443.4,232c-0.5,0.7-1.4,1.3-2.4,1.3c-1.5,0-2.2-0.8-2.2-2.2v-6.3h1.7v5.7c0,1,0.4,1.3,1.2,1.3
				c0.7,0,1.4-0.5,1.7-1.1v-5.8h1.7v8.3h-1.7V232z"/>
			<path class="st2" d="M451.7,227.5c0-1-0.4-1.3-1.2-1.3c-0.7,0-1.4,0.6-1.7,1.1v5.8h-1.7v-8.3h1.7v1.1c0.4-0.7,1.4-1.3,2.4-1.3
				c1.5,0,2.2,0.8,2.2,2.2v6.2h-1.7V227.5z"/>
			<path class="st2" d="M455.2,222.7c0-0.6,0.5-1.1,1.1-1.1c0.6,0,1.1,0.5,1.1,1.1c0,0.6-0.5,1.1-1.1,1.1
				C455.7,223.8,455.2,223.3,455.2,222.7z M455.5,224.8h1.7v8.3h-1.7V224.8z"/>
			<path class="st2" d="M461.9,229.6l-1,1.3v2.1h-1.7v-11.4h1.7v7.2l2.9-4.1h2l-2.7,3.7l2.8,4.6h-2L461.9,229.6z"/>
			<path class="st2" d="M471.3,232.3c-0.5,0.7-1.3,1-2.2,1c-1.3,0-2.5-1-2.5-2.8c0-1.8,1.2-2.7,2.5-2.7c0.8,0,1.7,0.3,2.2,1v-1.2
				c0-1-0.6-1.6-1.6-1.6c-0.7,0-1.4,0.3-2.1,0.9l-0.7-1.2c0.8-0.8,2-1.2,3-1.2c1.7,0,3,0.8,3,2.8v5.7h-1.7V232.3z M471.3,230
				c-0.3-0.6-0.9-0.9-1.6-0.9c-0.9,0-1.4,0.7-1.4,1.5s0.5,1.5,1.4,1.5c0.6,0,1.2-0.3,1.6-0.9V230z"/>
			<path class="st2" d="M475.3,231.3v-4.9h-1.1v-1.5h1.1v-2.3h1.7v2.3h1.4v1.5H477v4.6c0,0.6,0.2,0.9,0.6,0.9c0.3,0,0.5-0.1,0.7-0.3
				l0.4,1.3c-0.3,0.3-0.8,0.5-1.5,0.5C475.9,233.3,475.3,232.6,475.3,231.3z"/>
			<path class="st2" d="M479.6,222.7c0-0.6,0.5-1.1,1.1-1.1c0.6,0,1.1,0.5,1.1,1.1c0,0.6-0.5,1.1-1.1,1.1
				C480.1,223.8,479.6,223.3,479.6,222.7z M479.9,224.8h1.7v8.3h-1.7V224.8z"/>
			<path class="st2" d="M483.2,229c0-2.3,1.2-4.3,3.6-4.3c2.3,0,3.6,2,3.6,4.3c0,2.3-1.2,4.4-3.6,4.4
				C484.4,233.3,483.2,231.3,483.2,229z M488.6,229c0-1.5-0.6-2.8-1.8-2.8c-1.2,0-1.8,1.3-1.8,2.8s0.6,2.8,1.8,2.8
				C488,231.8,488.6,230.4,488.6,229z"/>
			<path class="st2" d="M496.5,227.5c0-1-0.4-1.3-1.2-1.3c-0.7,0-1.4,0.6-1.7,1.1v5.8H492v-8.3h1.7v1.1c0.4-0.7,1.4-1.3,2.4-1.3
				c1.5,0,2.2,0.8,2.2,2.2v6.2h-1.7V227.5z"/>
		</g>
	</g>
	<g>
		<g>
			<path class="st2" d="M591.1,202.8l-2.9,8.3h-0.8l-2.9-8.3v8.3h-2v-12h2.7l2.6,7.3l2.6-7.3h2.7v12h-2V202.8z"/>
			<path class="st2" d="M594.8,206.7c0-2.4,1.3-4.5,3.8-4.5c2.5,0,3.8,2.1,3.8,4.5c0,2.4-1.3,4.6-3.8,4.6
				C596.1,211.2,594.8,209.1,594.8,206.7z M600.5,206.7c0-1.6-0.6-3-1.9-3c-1.3,0-1.9,1.4-1.9,3s0.6,3,1.9,3
				C599.9,209.7,600.5,208.2,600.5,206.7z"/>
			<path class="st2" d="M609,209.9c-0.5,0.9-1.4,1.4-2.2,1.4c-1.9,0-3.2-1.8-3.2-4.5c0-2.7,1.2-4.6,3.2-4.6c0.8,0,1.7,0.4,2.2,1.4
				V199h1.8v12H609V209.9z M609,204.9c-0.3-0.6-1-1.2-1.7-1.2c-1.2,0-1.8,1.3-1.8,3c0,1.7,0.6,3,1.8,3c0.7,0,1.4-0.5,1.7-1.2V204.9z
				"/>
			<path class="st2" d="M617.7,209.9c-0.5,0.7-1.4,1.4-2.5,1.4c-1.5,0-2.3-0.8-2.3-2.3v-6.6h1.8v5.9c0,1,0.5,1.4,1.2,1.4
				c0.8,0,1.4-0.6,1.8-1.2v-6.1h1.8v8.7h-1.8V209.9z"/>
			<path class="st2" d="M621.6,199h1.8v12h-1.8V199z"/>
			<path class="st2" d="M568.1,226.2l-2.9,8.3h-0.8l-2.9-8.3v8.3h-2v-12h2.7l2.6,7.3l2.6-7.3h2.7v12h-2V226.2z"/>
			<path class="st2" d="M575.6,225.6c2.4,0,3.6,2,3.6,4.6v0.5h-5.5c0.1,1.4,0.9,2.5,2.3,2.5c0.7,0,1.5-0.3,2-0.9l0.9,1.1
				c-0.7,0.8-1.8,1.3-3,1.3c-2.4,0-3.9-1.9-3.9-4.6C571.9,227.6,573.3,225.6,575.6,225.6z M573.7,229.4h3.8c0-1.1-0.5-2.4-1.9-2.4
				C574.2,227,573.7,228.4,573.7,229.4z"/>
			<path class="st2" d="M585.8,233.3c-0.5,0.9-1.4,1.4-2.2,1.4c-1.9,0-3.2-1.8-3.2-4.5c0-2.7,1.2-4.6,3.2-4.6c0.8,0,1.7,0.4,2.2,1.4
				v-4.5h1.8v12h-1.8V233.3z M585.8,228.3c-0.3-0.6-1-1.2-1.7-1.2c-1.2,0-1.8,1.3-1.8,3c0,1.7,0.6,3,1.8,3c0.7,0,1.4-0.5,1.7-1.2
				V228.3z"/>
			<path class="st2" d="M594.2,233.6c-0.5,0.7-1.4,1.1-2.3,1.1c-1.4,0-2.7-1-2.7-2.9c0-1.9,1.3-2.8,2.7-2.8c0.9,0,1.8,0.3,2.3,1
				v-1.3c0-1-0.6-1.7-1.7-1.7c-0.8,0-1.5,0.3-2.2,1l-0.7-1.3c0.9-0.9,2.1-1.3,3.2-1.3c1.8,0,3.1,0.8,3.1,3v5.9h-1.8V233.6z
				 M594.2,231.2c-0.3-0.6-1-1-1.6-1c-0.9,0-1.5,0.7-1.5,1.6c0,0.9,0.6,1.6,1.5,1.6c0.6,0,1.3-0.4,1.6-1V231.2z"/>
			<path class="st2" d="M598.1,225.8h1.8v1.3c0.5-0.8,1.4-1.5,2.4-1.5v1.8c-0.1,0-0.3-0.1-0.5-0.1c-0.7,0-1.6,0.6-1.9,1.2v5.9h-1.8
				V225.8z"/>
			<path class="st2" d="M603.6,222.5h1.8v4.5c0.5-0.9,1.4-1.4,2.2-1.4c1.9,0,3.2,1.8,3.2,4.6c0,2.8-1.2,4.5-3.2,4.5
				c-0.9,0-1.7-0.5-2.2-1.4v1.1h-1.8V222.5z M607.1,233.1c1.2,0,1.8-1.3,1.8-3c0-1.7-0.6-3-1.8-3c-0.7,0-1.4,0.6-1.7,1.2v3.6
				C605.7,232.5,606.4,233.1,607.1,233.1z"/>
			<path class="st2" d="M615.8,225.6c2.4,0,3.6,2,3.6,4.6v0.5h-5.5c0.1,1.4,0.9,2.5,2.3,2.5c0.7,0,1.5-0.3,2-0.9l0.9,1.1
				c-0.7,0.8-1.8,1.3-3,1.3c-2.4,0-3.9-1.9-3.9-4.6C612,227.6,613.4,225.6,615.8,225.6z M613.8,229.4h3.8c0-1.1-0.5-2.4-1.9-2.4
				C614.4,227,613.9,228.4,613.8,229.4z"/>
			<path class="st2" d="M621.3,232.5v-5.2h-1.1v-1.6h1.1v-2.4h1.8v2.4h1.4v1.6h-1.4v4.8c0,0.6,0.2,1,0.7,1c0.3,0,0.6-0.1,0.7-0.3
				l0.4,1.3c-0.3,0.3-0.8,0.5-1.6,0.5C622,234.7,621.3,233.9,621.3,232.5z"/>
			<path class="st2" d="M630.6,233.6c-0.5,0.7-1.4,1.1-2.3,1.1c-1.4,0-2.7-1-2.7-2.9c0-1.9,1.3-2.8,2.7-2.8c0.9,0,1.8,0.3,2.3,1
				v-1.3c0-1-0.6-1.7-1.7-1.7c-0.8,0-1.5,0.3-2.2,1l-0.7-1.3c0.9-0.9,2.1-1.3,3.2-1.3c1.8,0,3.1,0.8,3.1,3v5.9h-1.8V233.6z
				 M630.6,231.2c-0.3-0.6-1-1-1.6-1c-0.9,0-1.5,0.7-1.5,1.6c0,0.9,0.6,1.6,1.5,1.6c0.6,0,1.3-0.4,1.6-1V231.2z"/>
			<path class="st2" d="M634.5,225.8h1.8v1.3c0.5-0.8,1.4-1.5,2.4-1.5v1.8c-0.1,0-0.3-0.1-0.5-0.1c-0.7,0-1.6,0.6-1.9,1.2v5.9h-1.8
				V225.8z"/>
			<path class="st2" d="M643.3,225.6c2.4,0,3.6,2,3.6,4.6v0.5h-5.5c0.1,1.4,0.9,2.5,2.3,2.5c0.7,0,1.5-0.3,2-0.9l0.9,1.1
				c-0.7,0.8-1.8,1.3-3,1.3c-2.4,0-3.9-1.9-3.9-4.6C639.6,227.6,641,225.6,643.3,225.6z M641.3,229.4h3.8c0-1.1-0.5-2.4-1.9-2.4
				C641.9,227,641.4,228.4,641.3,229.4z"/>
		</g>
	</g>
	<path class="st1" d="M602.4,150.6v12.2h6.6l-11.6,9.9l-12.1-9.9h6.8v-12.2C592.1,150.6,604.1,150.6,602.4,150.6z"/>
	<path class="st1" d="M433.3,150.6v12.2h6.6l-11.6,9.9l-12.1-9.9h6.8v-12.2C423.1,150.6,435.1,150.6,433.3,150.6z"/>
	<path class="st1" d="M260,150.6v12.2h6.6l-11.6,9.9l-12.1-9.9h6.8v-12.2C249.8,150.6,261.7,150.6,260,150.6z"/>
	<path class="st1" d="M87.8,150.6v12.2h6.6l-11.6,9.9l-12.1-9.9h6.8v-12.2C77.6,150.6,89.6,150.6,87.8,150.6z"/>
	<g>
		<path class="st0" d="M174.5,223.9h-16.1c0,0,0-12,0-10.2h16.1V223.9z"/>
		<path class="st0" d="M349,223.9h-16.1c0,0,0-12,0-10.2H349V223.9z"/>
		<path class="st0" d="M523.6,224.1h-16.1c0,0,0-12,0-10.2h16.1V224.1z"/>
	</g>
	<line class="st3" x1="325.6" y1="17.6" x2="351.7" y2="17.6"/>
	<line class="st4" x1="325.6" y1="55.7" x2="351.7" y2="55.7"/>
	<line class="st5" x1="325.6" y1="36.5" x2="347.5" y2="36.5"/>
	<line class="st5" x1="415.3" y1="55.8" x2="415.3" y2="17.4"/>
	<line class="st3" x1="430.6" y1="42.1" x2="430.6" y2="17.4"/>
	<line class="st4" x1="398.5" y1="56" x2="398.6" y2="17.4"/>
	<line class="st3" x1="366.2" y1="56" x2="366.3" y2="17.4"/>
	<line class="st5" x1="366.3" y1="17.4" x2="398.5" y2="55.9"/>
	<path class="st4" d="M430.6,42.4c0.7,8,7.8,13.8,16,13.8c8.7,0,15.2-5.6,16.1-14.1"/>
	<line class="st4" x1="198.6" y1="36.7" x2="213" y2="36.7"/>
	<path class="st3" d="M213.2,22.2c-3.6-3.5-8.4-5.7-13.8-5.7"/>
	<path class="st3" d="M179.6,36.3c0,10.9,8.8,19.7,19.7,19.7"/>
	<path class="st5" d="M199.2,56c5.1,0,10.1-2,13.6-5.2"/>
	<path class="st4" d="M245.5,56c11.2,0,20.3-9.1,20.3-20.3"/>
	<path class="st3" d="M245.5,15.3c-11.2,0-20.3,9.1-20.3,20.3"/>
	<path class="st5" d="M265.8,35.6c0-11.2-9.1-20.3-20.3-20.3"/>
	<line class="st5" x1="213.1" y1="36.7" x2="213.1" y2="50.4"/>
	<polyline class="st4" points="296.6,36.7 311.2,36.7 311.2,50.4 	"/>
	<path class="st3" d="M311.2,22.2c-3.6-3.5-8.4-5.7-13.8-5.7"/>
	<path class="st5" d="M277.6,36.3c0,10.9,8.8,19.7,19.7,19.7"/>
	<path class="st5" d="M297.3,56c5.1,0,10.1-2,13.6-5.2"/>
	<path class="st5" d="M487.6,16.1c5,0.2,10.1,2.2,12.2,3.7"/>
	<path class="st5" d="M501.8,46.4c-0.4-4.8-3.6-7.2-7.4-8.6c-2.2-0.8-4.5-1.3-6.9-1.9"/>
	<path class="st4" d="M473.2,51.4c4.7,3.1,10.1,4.8,14.4,5.1"/>
	<path class="st3" d="M487.3,35.8c-1.2-0.3-2.5-0.6-3.7-1c-5.1-1.6-8.2-4.6-8-9.8c0.2-6.1,5.5-8.9,10.8-8.9c0.3,0,0.6,0,0.9,0"/>
	<path class="st6" d="M487.6,35.8"/>
	<circle class="st7" cx="199.1" cy="56" r="4.3"/>
	<circle class="st8" cx="245.5" cy="15.3" r="4.3"/>
	<circle class="st9" cx="265.8" cy="35.6" r="4.3"/>
	<circle class="st9" cx="297.4" cy="56" r="4.3"/>
	<circle class="st9" cx="310.9" cy="50.8" r="4.3"/>
	<circle class="st10" cx="430.6" cy="42.4" r="4.3"/>
	<circle class="st11" cx="487.3" cy="16" r="4.3"/>
	<circle class="st11" cx="487.3" cy="35.8" r="4.3"/>
	<path class="st11" d="M369.4,14.5C369.4,14.5,369.3,14.5,369.4,14.5c-0.1-0.1-0.1-0.1-0.1-0.1c0,0-0.1-0.1-0.1-0.1c0,0,0,0-0.1,0
		c0,0-0.1-0.1-0.1-0.1c0,0,0,0,0,0c0,0-0.1-0.1-0.1-0.1c0,0,0,0,0,0c0,0-0.1-0.1-0.1-0.1c0,0,0,0,0,0c0,0-0.1-0.1-0.1-0.1
		c0,0,0,0-0.1,0c0,0-0.1,0-0.1-0.1c0,0,0,0-0.1,0c0,0-0.1,0-0.1-0.1c0,0-0.1,0-0.1,0c0,0-0.1,0-0.1,0c0,0-0.1,0-0.1,0c0,0,0,0-0.1,0
		c0,0-0.1,0-0.1,0c0,0,0,0-0.1,0c0,0-0.1,0-0.1,0c0,0,0,0-0.1,0c0,0-0.1,0-0.1,0c0,0,0,0-0.1,0c0,0-0.1,0-0.1,0c0,0,0,0-0.1,0
		c0,0-0.1,0-0.1,0c0,0,0,0-0.1,0c0,0-0.1,0-0.1,0c0,0-0.1,0-0.1,0c0,0-0.1,0-0.1,0c0,0-0.1,0-0.1,0c0,0-0.1,0-0.1,0
		c-0.1,0-0.1,0-0.2,0c0,0,0,0,0,0c-0.1,0-0.1,0-0.2,0c0,0,0,0,0,0c-0.1,0-0.1,0-0.2,0c0,0,0,0-0.1,0c0,0-0.1,0-0.1,0
		c0,0-0.1,0-0.1,0c0,0-0.1,0-0.1,0c0,0-0.1,0-0.1,0c0,0-0.1,0-0.1,0c0,0-0.1,0-0.1,0c0,0-0.1,0-0.1,0c0,0-0.1,0-0.1,0
		c0,0-0.1,0-0.1,0c0,0-0.1,0-0.1,0c0,0-0.1,0-0.1,0c0,0-0.1,0-0.1,0.1c0,0-0.1,0-0.1,0c-0.1,0.1-0.2,0.1-0.4,0.2c0,0,0,0,0,0
		c0,0-0.1,0.1-0.1,0.1c0,0,0,0,0,0c0,0-0.1,0.1-0.1,0.1c0,0,0,0-0.1,0.1c0,0-0.1,0.1-0.1,0.1c0,0-0.1,0.1-0.1,0.1c0,0,0,0-0.1,0.1
		c0,0-0.1,0.1-0.1,0.1c0,0,0,0,0,0c0,0-0.1,0.1-0.1,0.1c0,0,0,0,0,0c0,0-0.1,0.1-0.1,0.1c0,0,0,0,0,0c0,0-0.1,0.1-0.1,0.1
		c0,0,0,0,0,0c0,0-0.1,0.1-0.1,0.1c0,0,0,0,0,0c0,0,0,0.1-0.1,0.1c0,0,0,0,0,0.1c0,0,0,0.1-0.1,0.1c0,0,0,0.1,0,0.1c0,0,0,0.1,0,0.1
		c0,0,0,0.1,0,0.1c0,0,0,0.1,0,0.1c0,0,0,0.1,0,0.1c0,0,0,0,0,0.1c0,0,0,0.1,0,0.1c0,0,0,0,0,0.1c0,0,0,0.1,0,0.1c0,0,0,0,0,0.1
		c0,0,0,0.1,0,0.1c0,0,0,0,0,0.1c0,0,0,0.1,0,0.1c0,0,0,0,0,0.1c0,0,0,0.1,0,0.1c0,0,0,0.1,0,0.1c0,0,0,0.1,0,0.1c0,0,0,0.1,0,0.1
		c0,1,0.3,2,1,2.8l7.5,8.9l0-11.6C370.5,16.3,370.1,15.3,369.4,14.5C369.5,14.6,369.4,14.5,369.4,14.5z"/>
	<path class="st9" d="M395.4,58.8C395.4,58.8,395.5,58.9,395.4,58.8c0.1,0.1,0.1,0.1,0.1,0.1c0,0,0.1,0.1,0.1,0.1c0,0,0,0,0.1,0
		c0,0,0.1,0.1,0.1,0.1c0,0,0,0,0,0c0,0,0.1,0.1,0.1,0.1c0,0,0,0,0,0c0,0,0.1,0.1,0.1,0.1c0,0,0,0,0,0c0,0,0.1,0.1,0.1,0.1
		c0,0,0,0,0.1,0c0,0,0.1,0,0.1,0.1c0,0,0,0,0.1,0c0,0,0.1,0,0.1,0.1c0,0,0.1,0,0.1,0c0,0,0.1,0,0.1,0c0,0,0.1,0,0.1,0c0,0,0,0,0.1,0
		c0,0,0.1,0,0.1,0c0,0,0,0,0.1,0c0,0,0.1,0,0.1,0c0,0,0,0,0.1,0c0,0,0.1,0,0.1,0c0,0,0,0,0.1,0c0,0,0.1,0,0.1,0c0,0,0,0,0.1,0
		c0,0,0.1,0,0.1,0c0,0,0,0,0.1,0c0,0,0.1,0,0.1,0c0,0,0.1,0,0.1,0c0,0,0.1,0,0.1,0c0,0,0.1,0,0.1,0c0,0,0.1,0,0.1,0
		c0.1,0,0.1,0,0.2,0c0,0,0,0,0,0c0.1,0,0.1,0,0.2,0c0,0,0,0,0,0c0.1,0,0.1,0,0.2,0c0,0,0,0,0.1,0c0,0,0.1,0,0.1,0c0,0,0.1,0,0.1,0
		c0,0,0.1,0,0.1,0c0,0,0.1,0,0.1,0c0,0,0.1,0,0.1,0c0,0,0.1,0,0.1,0c0,0,0.1,0,0.1,0c0,0,0.1,0,0.1,0c0,0,0.1,0,0.1,0
		c0,0,0.1,0,0.1,0c0,0,0.1,0,0.1,0c0,0,0.1,0,0.1-0.1c0,0,0.1,0,0.1,0c0.1-0.1,0.2-0.1,0.4-0.2c0,0,0,0,0,0c0,0,0.1-0.1,0.1-0.1
		c0,0,0,0,0,0c0,0,0.1-0.1,0.1-0.1c0,0,0,0,0.1-0.1c0,0,0.1-0.1,0.1-0.1c0,0,0.1-0.1,0.1-0.1c0,0,0,0,0.1-0.1c0,0,0.1-0.1,0.1-0.1
		c0,0,0,0,0,0c0,0,0.1-0.1,0.1-0.1c0,0,0,0,0,0c0,0,0.1-0.1,0.1-0.1c0,0,0,0,0,0c0,0,0.1-0.1,0.1-0.1c0,0,0,0,0,0
		c0,0,0.1-0.1,0.1-0.1c0,0,0,0,0,0c0,0,0-0.1,0.1-0.1c0,0,0,0,0-0.1c0,0,0-0.1,0.1-0.1c0,0,0-0.1,0-0.1c0,0,0-0.1,0-0.1
		c0,0,0-0.1,0-0.1c0,0,0-0.1,0-0.1c0,0,0-0.1,0-0.1c0,0,0,0,0-0.1c0,0,0-0.1,0-0.1c0,0,0,0,0-0.1c0,0,0-0.1,0-0.1c0,0,0,0,0-0.1
		c0,0,0-0.1,0-0.1c0,0,0,0,0-0.1c0,0,0-0.1,0-0.1c0,0,0,0,0-0.1c0,0,0-0.1,0-0.1c0,0,0-0.1,0-0.1c0,0,0-0.1,0-0.1c0,0,0-0.1,0-0.1
		c0-1-0.3-2-1-2.8l-7.5-8.9l0,11.6C394.3,57,394.7,58,395.4,58.8C395.4,58.8,395.4,58.8,395.4,58.8z"/>
	<text transform="matrix(1 0 0 1 503.6523 11.9834)" class="st12 st13 st14">®</text>
	<path class="st9" d="M210,47.7c-0.4,0.3-0.8,0.7-1.2,1v1.8c0,2.3,1.9,4.2,4.2,4.2c1.5,0,2.8-0.8,3.5-1.9c0.8-1.5,0.7-3.5-0.6-4.9
		C214.4,46.2,211.7,46.1,210,47.7z"/>
	<path class="st9" d="M213,40.9c2.3,0,4.2-1.9,4.2-4.2c0-1.2-0.5-2.2-1.2-3c-0.8-0.8-1.8-1.2-3-1.2c-2.3,0-4.2,1.9-4.2,4.2v4.2H213z
		"/>
</g>
</svg>
